<?xml version="1.0" encoding="UTF-8" standalone="no"?>
<svg
   width="100%"
   height="100%"
   viewBox="0 0 572 572"
   version="1.1"
   xml:space="preserve"
   style="fill-rule:evenodd;clip-rule:evenodd;stroke-linejoin:round;stroke-miterlimit:2;"
   id="svg1"
   sodipodi:docname="engine-light.svg"
   inkscape:version="1.3.2 (091e20e, 2023-11-25, custom)"
   xmlns:inkscape="http://www.inkscape.org/namespaces/inkscape"
   xmlns:sodipodi="http://sodipodi.sourceforge.net/DTD/sodipodi-0.dtd"
   xmlns="http://www.w3.org/2000/svg"
   xmlns:svg="http://www.w3.org/2000/svg"><defs
   id="defs1" /><sodipodi:namedview
   id="namedview1"
   pagecolor="#505050"
   bordercolor="#eeeeee"
   borderopacity="1"
   inkscape:showpageshadow="0"
   inkscape:pageopacity="0"
   inkscape:pagecheckerboard="0"
   inkscape:deskcolor="#505050"
   showgrid="false"
   inkscape:zoom="1.4947552"
   inkscape:cx="285.6655"
   inkscape:cy="286"
   inkscape:window-width="1920"
   inkscape:window-height="1111"
   inkscape:window-x="-9"
   inkscape:window-y="-9"
   inkscape:window-maximized="1"
   inkscape:current-layer="svg1" />
    <path
   d="M340,120L170.8,120.5L170.5,141L219,141L219,159.9L194.8,160.2C171.5,160.5 170.3,160.6 165.7,162.9C158.1,166.7 152.4,173 148,182.4C143.2,193 142.2,193.6 127,194.3C108.3,195.1 88.615,201.274 88.5,219.5L88.2,246.3L87.9,273L60,273C60,273 60.2,190.1 59.9,190.2C59.5,190.4 38,210.8 38,210.8L38,281.6L45,288.4L45,367.8L59.1,374L60,295L87.9,295L88.2,331.8C88.5,368 88.5,368.6 90.8,373.2C94.2,380 100,386.1 106.1,389.5C111.2,392.2 112.3,392.4 129,393.2C138.6,393.7 148.1,394.3 150,394.6C152.8,395.1 157.5,399.2 177.5,418.8C206.9,447.8 210.622,451.763 218.5,452L315,451.7L411.5,451.5C428.462,448.187 429.923,440.796 433.435,433.411C435.991,428.033 436.004,423.117 436,413.5L436.5,399.5L457,398.9L457.5,438.5L518.7,439L534,378.1L534,272.5L518.7,212L457,212L457,251L436,251L436,211C436,211 393.369,212.289 385.2,208.5C379.416,205.817 378.9,199.9 377.9,191.2C376.9,182 374,175.9 367.8,169.7C358.9,160.8 358,160.6 322.5,160L291.5,159.5L291.5,141.5L340,141L340,120ZM416.1,378L415.8,399.8C415.5,420.7 415.4,421.6 413.2,424.8C408.5,431.4 414.4,431 313.3,431C246.3,430.9 224.718,431.839 219.5,429.8C215.625,428.285 206.1,417.5 192.1,403.8C160,372.4 162.3,373.7 136.9,373C116.5,372.4 114.8,371.9 111,365.7C109.1,362.6 109,360.1 109,294.2C109,218.8 108.7,222 115.3,218C117.281,216.799 120.3,216 126.1,216C135.4,216 144,214.5 149.6,211.9C155.1,209.3 162.3,202.1 164.8,196.7C165.9,194.4 167.6,190.8 168.6,188.6C169.5,186.5 171.7,183.9 173.4,182.9C176.4,181.1 180.1,181 262,181C345,181 347.6,181.1 350.7,183C354.8,185.5 356.6,189.1 357.3,196.6C359.1,214.1 371,228.7 386.4,232C389.2,232.6 396.9,233 403.5,232.9L415.5,232.8L416,272L478,272L478,233L502.7,233L513,272.7L513,377L502.8,418L478,418L478,378L416.1,378Z"
   style="fill-rule:nonzero;fill:#ffffff;fill-opacity:1"
   id="path1" />
</svg>
