<?xml version="1.0" encoding="UTF-8" standalone="no"?>
<svg
   width="100%"
   height="100%"
   viewBox="0 0 572 572"
   version="1.1"
   xml:space="preserve"
   style="fill-rule:evenodd;clip-rule:evenodd;stroke-linejoin:round;stroke-miterlimit:2;"
   id="svg1"
   sodipodi:docname="engine-oil.svg"
   inkscape:version="1.3.2 (091e20e, 2023-11-25, custom)"
   xmlns:inkscape="http://www.inkscape.org/namespaces/inkscape"
   xmlns:sodipodi="http://sodipodi.sourceforge.net/DTD/sodipodi-0.dtd"
   xmlns="http://www.w3.org/2000/svg"
   xmlns:svg="http://www.w3.org/2000/svg"><defs
   id="defs1" /><sodipodi:namedview
   id="namedview1"
   pagecolor="#505050"
   bordercolor="#eeeeee"
   borderopacity="1"
   inkscape:showpageshadow="0"
   inkscape:pageopacity="0"
   inkscape:pagecheckerboard="0"
   inkscape:deskcolor="#505050"
   showgrid="false"
   inkscape:zoom="1.4947552"
   inkscape:cx="285.6655"
   inkscape:cy="286"
   inkscape:window-width="1920"
   inkscape:window-height="1111"
   inkscape:window-x="-9"
   inkscape:window-y="-9"
   inkscape:window-maximized="1"
   inkscape:current-layer="svg1" />
    <path
   d="M155,225.1C155,225.1 46.7,186 46.3,186.4C45.8,186.8 24.9,267.2 25.2,267.5C25.4,267.8 128,305.3 128,305.3C128,305.3 128.3,386 128.7,386.3C129,386.7 364.8,387 364.8,387C364.8,387 477.8,249.9 478.5,249.2C479.1,248.5 510.4,239.9 510.4,239.9L527.4,255.9L545.1,233.6L520.1,209.9L323,268L302.7,247L238.9,247L239.5,219L271,219L271,193.5L184,193.5L184,219L214,219L214,248L155,248L155,225.1ZM155,359L155.5,274.5L288.2,274L315.3,299.5C315.3,299.5 440.7,257.6 439.8,258.9C439.1,259.9 351.5,358.5 351.5,358.5L155,359ZM537,356.1C542.1,353.5 546,347.5 546.9,340.4C547.9,333.6 547.2,330.5 541.2,315C538.1,306.9 536.9,302.2 536.1,294.2C534.9,281.6 533.5,279 528.1,279C522.4,279 521.1,281.1 519.9,292.1C518.6,304.2 517.8,307.2 512.4,320.6C507.6,332.6 507.1,336.7 509.5,344.6C512.9,356.3 525.7,361.6 537,356.1ZM127.8,274.9C127.6,274.9 58.2,249.1 58.2,249.1C58.2,249.1 65.6,224.1 66,223.7C66.4,223.2 128,244.4 128,244.4C128,244.4 127.9,275 127.8,274.9Z"
   style="fill-rule:nonzero;fill:#ffffff;fill-opacity:1"
   id="path1" />
</svg>
