<?xml version="1.0" encoding="UTF-8" standalone="no"?>
<svg
   width="100%"
   height="100%"
   viewBox="0 0 572 572"
   version="1.1"
   xml:space="preserve"
   style="fill-rule:evenodd;clip-rule:evenodd;stroke-linejoin:round;stroke-miterlimit:2;"
   id="svg1"
   sodipodi:docname="fan.svg"
   inkscape:version="1.3.2 (091e20e, 2023-11-25, custom)"
   xmlns:inkscape="http://www.inkscape.org/namespaces/inkscape"
   xmlns:sodipodi="http://sodipodi.sourceforge.net/DTD/sodipodi-0.dtd"
   xmlns="http://www.w3.org/2000/svg"
   xmlns:svg="http://www.w3.org/2000/svg"><defs
   id="defs1" /><sodipodi:namedview
   id="namedview1"
   pagecolor="#505050"
   bordercolor="#eeeeee"
   borderopacity="1"
   inkscape:showpageshadow="0"
   inkscape:pageopacity="0"
   inkscape:pagecheckerboard="0"
   inkscape:deskcolor="#505050"
   inkscape:zoom="1.4947552"
   inkscape:cx="285.6655"
   inkscape:cy="286"
   inkscape:window-width="1920"
   inkscape:window-height="1111"
   inkscape:window-x="-9"
   inkscape:window-y="-9"
   inkscape:window-maximized="1"
   inkscape:current-layer="svg1" />
    <path
   id="layer102"
   d="M388.8,536.1C436,524 482.1,478.2 491.2,434.2C497.1,405.7 486.3,375.6 461,350.1C434.5,323.4 397.8,305.7 358.4,300.5C346.2,298.9 342.8,297.5 341.2,293.2C339.1,287.7 339,286.1 340.6,282.1C343.3,275.4 351.3,270.3 365.5,266.4C372.2,264.5 394.7,264.5 403.7,266.4C413.3,268.5 425.5,272.4 440,278.2C456.7,285 464.6,287 476.5,287.7C510,289.5 531.4,268.6 537.6,227.8C539.7,214.1 539,194.6 536,183.5C529.6,159.6 515.7,136.6 496,117C484,105.1 471.7,96.2 457.5,89.4C442.2,82 432.5,79.6 418,79.7C404.4,79.8 394.7,82 382.3,87.9C340.8,107.8 307.3,159.1 300.4,213.4C298.7,226.9 297.4,229.7 291.7,231.9C283.1,235.1 275.1,229.7 270.1,217.2C265.8,206.3 264.8,201.1 264.8,188C264.7,170.3 267.5,158.8 278.7,130.6C287.5,108.5 289.6,94.3 286.5,79.5C281.6,56.3 264.3,42.1 233,35.4C221.2,32.9 197.2,32.9 187.3,35.3C146.2,45.2 108.3,75.9 89.4,114.5C81.8,130 79.7,138.6 79.7,153.5C79.6,167.2 81.2,175.1 86.5,187.2C93.4,203.2 107,220.4 122.8,233.2C149.3,254.5 185.8,269.7 217.5,272.4C225.5,273.1 228.6,274.9 231.4,280.4C236.9,291.6 223.4,303.5 201.3,306.9C181.4,310 163.2,306.6 131.5,294C116,287.8 110.5,286.2 100.3,285C76.2,282 55,292.4 44.3,312.5C34.3,331.4 30.5,360.6 35.1,383.3C40.2,408.8 54.7,434.1 76.4,455.5C88.6,467.5 101,476.5 114.5,483.1C130.3,490.7 137.8,492.5 154.5,492.4C167.1,492.4 169.4,492.1 177,489.6C193.1,484.2 207,475.8 220.3,463.1C247.7,436.9 267.3,397 272,357.5C273.3,346.4 273.8,345.1 277.6,342.1C281.1,339.3 288.3,339.3 292.7,342C299.6,346.2 305.3,359.1 307.1,374.6C309.1,391.7 306,409.2 296.8,433C289,453 285.9,463.2 284.8,472.1C282.1,493.4 289.7,512.3 305.3,523.4C325.3,537.7 361.2,543.1 388.8,536.1Z"
   style="fill-rule:nonzero;fill:#ffffff;fill-opacity:1" />
</svg>
