<?xml version="1.0" encoding="UTF-8" standalone="no"?>
<svg
   width="100%"
   height="100%"
   viewBox="0 0 572 572"
   version="1.1"
   xml:space="preserve"
   style="fill-rule:evenodd;clip-rule:evenodd;stroke-linejoin:round;stroke-miterlimit:2;"
   id="svg1"
   sodipodi:docname="fog-lights.svg"
   inkscape:version="1.3.2 (091e20e, 2023-11-25, custom)"
   xmlns:inkscape="http://www.inkscape.org/namespaces/inkscape"
   xmlns:sodipodi="http://sodipodi.sourceforge.net/DTD/sodipodi-0.dtd"
   xmlns="http://www.w3.org/2000/svg"
   xmlns:svg="http://www.w3.org/2000/svg"><defs
   id="defs1" /><sodipodi:namedview
   id="namedview1"
   pagecolor="#505050"
   bordercolor="#eeeeee"
   borderopacity="1"
   inkscape:showpageshadow="0"
   inkscape:pageopacity="0"
   inkscape:pagecheckerboard="0"
   inkscape:deskcolor="#505050"
   showgrid="false"
   inkscape:zoom="1.4947552"
   inkscape:cx="285.6655"
   inkscape:cy="286"
   inkscape:window-width="1920"
   inkscape:window-height="1111"
   inkscape:window-x="-9"
   inkscape:window-y="-9"
   inkscape:window-maximized="1"
   inkscape:current-layer="svg1" />
    <path
   d="M173,505.4C183.1,485.1 187.6,465.1 186.6,444.5C186.3,437.9 185.8,431.6 185.5,430.5C185,428.8 240,396.8 240,396.8L239.6,363C239.6,363 179.1,397.4 178.4,397.7C177.8,397.9 177,397.3 176.7,396.3C166,360 163,345.9 163,333.1L163.1,325.5L240,281.6C240,281.6 239.8,247.9 238.6,248.3C237.1,248.9 181.8,280.5 178.1,282.9C175.8,284.4 175.7,284.4 176.2,282.5C176.5,281.4 177.9,276.6 179.3,271.8C187.1,245.5 187.9,224.2 181.9,200.7C180.8,196.4 180.2,192.5 180.5,192.1C180.8,191.6 240,157.5 240,157.5L239.5,125L168.5,164.8C168.5,164.8 167,160.5 165.6,155.5C162.6,145.3 160,130 160,122.4C160,108.5 165.2,91 175.8,69.1C179,62.7 181.8,56.8 181.8,56.8L150.1,56L146.7,62.3C129.8,92.9 127.4,123.5 138.7,164C140.7,170.9 142.3,177.3 142.4,178.3C142.5,179.7 64,225.2 64,225.2L64,258.1C64,258.1 150.6,208.6 151.5,207.9C153.2,206.2 153.7,207 154.8,212.8C158.6,232.3 156.9,248.7 148.3,274C145.2,283.1 141.5,294 140.1,298.3L137.4,306L64.5,347.8L64.4,382L134.5,342L135.8,350.8C137.4,362.2 142.9,384.4 147.9,400C151.4,410.8 151.8,412.6 150.5,413.6C149.6,414.2 64,463.4 64,463.4L65.3,497.2C65.3,497.2 156,445 156.6,445C157.5,445 156.9,458 155.5,466.5C153.2,481 146.3,498.4 138,510.6L135,515L168.5,514.5L173,505.4ZM334.5,509C352.5,503.7 363.7,499.3 378,491.8C438.7,460.1 484.6,402.9 500.9,338.5C505.7,319.5 508.6,293.2 507.5,277.5C504,225.6 489,183.6 459.8,144.1C447.1,127 423,104.8 401.9,90.8C379.3,75.7 341.8,60 322.2,57.4L317.5,56.8L312.3,68.7C291.4,116.3 277.9,176.6 273.3,243C272.1,260 272.5,320.3 273.8,337.5C278.4,393.9 293.5,460.7 310.2,497.5C312.9,503.6 315.7,509.7 316.3,511.2C317,513 318,513.8 319,513.6C319.8,513.3 326.8,511.3 334.5,509Z"
   style="fill-rule:nonzero;fill:#ffffff;fill-opacity:1"
   id="path1" />
</svg>
