<?xml version="1.0" encoding="UTF-8" standalone="no"?>
<svg
   width="100%"
   height="100%"
   viewBox="0 0 573 573"
   version="1.1"
   xml:space="preserve"
   style="fill-rule:evenodd;clip-rule:evenodd;stroke-linejoin:round;stroke-miterlimit:2;"
   id="svg1"
   sodipodi:docname="gasicon.svg"
   inkscape:version="1.3.2 (091e20e, 2023-11-25, custom)"
   xmlns:inkscape="http://www.inkscape.org/namespaces/inkscape"
   xmlns:sodipodi="http://sodipodi.sourceforge.net/DTD/sodipodi-0.dtd"
   xmlns="http://www.w3.org/2000/svg"
   xmlns:svg="http://www.w3.org/2000/svg"><defs
   id="defs1" /><sodipodi:namedview
   id="namedview1"
   pagecolor="#505050"
   bordercolor="#eeeeee"
   borderopacity="1"
   inkscape:showpageshadow="0"
   inkscape:pageopacity="0"
   inkscape:pagecheckerboard="0"
   inkscape:deskcolor="#505050"
   showgrid="false"
   inkscape:zoom="1.4921466"
   inkscape:cx="286.16491"
   inkscape:cy="286.5"
   inkscape:window-width="1920"
   inkscape:window-height="1111"
   inkscape:window-x="-9"
   inkscape:window-y="-9"
   inkscape:window-maximized="1"
   inkscape:current-layer="svg1" />
    <path
   d="M326,264.5C326,264.5 331.923,264.117 337.5,265.6C345.153,267.635 348.2,270.2 351.2,275.4C352.8,278 353.357,281.226 353.4,283.7C353.439,285.95 354.2,311.2 354.4,342.9C354.7,394.1 354.546,401.906 356,407.8C357.274,412.966 359.645,420.847 366,429.9C373.817,441.036 381.4,446.3 384.7,448.6C394.957,455.749 408.756,459.454 418.4,459.9C429.062,460.393 437.731,458.87 443.1,457.1C452.004,454.165 458.3,451.6 465.5,447.2C469,445.1 473.605,441.452 477.5,435.9C482.386,428.935 485.277,422.606 486.8,417C488.78,409.712 489.4,408.2 489.6,390C489.7,379.3 489.4,370 488.9,369.4C488.4,368.8 485,347.8 484.7,347.4C483.8,345.8 481.1,323.6 481.1,323.6L476.9,295.3C476.9,295.3 470,218.904 470,215.5C470,211.408 471.544,209.17 474.8,207C475.466,206.556 477.218,205.583 479.2,204.5C481.1,203.462 483.4,202.122 484.8,201.3C486.079,200.549 492.7,196.5 492.7,196.5L489.8,188.5C485.6,177 479.8,165.9 472.2,154.6C468.5,149.2 465.1,144 464.5,143.1C464,142.3 455.1,132.2 449,126.4C443,120.5 439.269,115.827 437.2,114C435.5,112.499 424.7,104.1 423.8,103.5C422.9,103 417.5,99.4 411.9,95.6C395.3,84.3 371.799,73.368 357.499,70.368L354,69.8L354,85.3C354,102.8 353.5,101.6 363,106.1C366.3,107.7 380.001,115.657 382,117C384.4,118.613 389.528,121.992 395.1,127C403.748,134.772 411.9,144.412 415.5,149.5C418.253,153.391 418.639,154.6 421.8,160C424.2,164.1 426.625,171.583 428.4,175.5C429.728,178.43 433.5,192 434.2,193.6C434.8,195.2 436.6,203.6 437.2,205.3C437.7,207.1 438.3,209.4 438.5,210.5C439.6,216.3 440.1,220.1 440.5,225.5C440.8,228.8 441.3,233.3 441.6,235.5C442,237.7 442.4,242.2 442.6,245.5C443.1,253 444,266.1 444.4,272C444.6,274.5 445.1,279.9 445.4,284C445.7,288.1 460.2,377.3 460.6,379.5C461.9,385.8 461.767,401.077 459,408C455.756,416.116 452.529,420.7 443.3,426C435.357,430.561 416.445,430.6 411.4,429.2C403.068,426.887 398.897,422.952 394.1,417C391.356,413.595 387.825,405.817 387,401.5C385.9,395.741 385.9,380 386,340.4C386,298.1 385.074,287.568 384.9,281.4C384.799,277.842 383.975,273.34 383.32,270.656C382.899,268.932 382.7,267.7 378.9,259.2C374.9,250.3 366.5,241.8 357.6,237.6C349.2,233.6 347.463,232.796 339.6,231.6C333.188,230.625 325.5,230.7 325.5,230.7L326,89.9C325.672,78.721 316.852,70.625 305.6,70.6L123.4,70.6C113.206,70.734 105.18,75.566 105,88.5L105,475L79.5,476.5L78.9,505L346.5,504.5L346.5,476.5L326,475.5L326,264.5ZM135,100.5C135,100.5 293.5,101.2 293.7,101.3C294.2,101.8 294.5,230 294,229.8C293.7,229.6 135,229 135,229L135,100.5Z"
   style="fill:#ffffff;fill-rule:nonzero;fill-opacity:1"
   id="path1" />
</svg>
