<?xml version="1.0" encoding="UTF-8" standalone="no"?>
<svg
   width="100%"
   height="100%"
   viewBox="0 0 572 572"
   version="1.1"
   xml:space="preserve"
   style="fill-rule:evenodd;clip-rule:evenodd;stroke-linejoin:round;stroke-miterlimit:2;"
   id="svg1"
   sodipodi:docname="high-beam.svg"
   inkscape:version="1.3.2 (091e20e, 2023-11-25, custom)"
   xmlns:inkscape="http://www.inkscape.org/namespaces/inkscape"
   xmlns:sodipodi="http://sodipodi.sourceforge.net/DTD/sodipodi-0.dtd"
   xmlns="http://www.w3.org/2000/svg"
   xmlns:svg="http://www.w3.org/2000/svg"><defs
   id="defs1" /><sodipodi:namedview
   id="namedview1"
   pagecolor="#505050"
   bordercolor="#eeeeee"
   borderopacity="1"
   inkscape:showpageshadow="0"
   inkscape:pageopacity="0"
   inkscape:pagecheckerboard="0"
   inkscape:deskcolor="#505050"
   showgrid="false"
   inkscape:zoom="1.4947552"
   inkscape:cx="285.6655"
   inkscape:cy="286"
   inkscape:window-width="1920"
   inkscape:window-height="1111"
   inkscape:window-x="-9"
   inkscape:window-y="-9"
   inkscape:window-maximized="1"
   inkscape:current-layer="svg1" />
    <path
   d="M353.5,436.9C408.1,432.2 450.6,417.3 482.5,391.7C486.9,388.1 494.8,380.8 500,375.3C521.3,353.1 534.8,328.4 539.6,303.3C541.7,292.2 541,273 538.1,262C526.1,215.9 482.4,170.5 431.9,151.7C399.7,139.6 364.4,133.8 323.9,134C289.8,134.1 279.1,135.7 272.7,141.8C268.4,145.9 266.6,150.1 261.1,169.2C246.7,219.3 243.3,243.9 244.3,293.4C244.9,322.4 245.8,332.5 250.1,357.5C254.4,382.3 264.3,417.9 269.1,425.7C273.4,432.6 280.6,435.3 298.8,437C311.9,438.1 340,438.1 353.5,436.9ZM234.8,423L225.2,395.5L51,395L51,423L234.8,423ZM216.2,361L211.6,334L51,334L51,361L216.2,361ZM208.9,299L208.8,272L51,272L51,299L208.9,299ZM211.5,237L216.2,210L51,210L51,237L211.5,237ZM224.7,176L234.7,148L51,148L51,175L224.7,176Z"
   style="fill-rule:nonzero;fill:#ffffff;fill-opacity:1"
   id="path1" />
</svg>
