<?xml version="1.0" encoding="UTF-8" standalone="no"?>
<svg
   width="100%"
   height="100%"
   viewBox="0 0 572 572"
   version="1.1"
   xml:space="preserve"
   style="fill-rule:evenodd;clip-rule:evenodd;stroke-linejoin:round;stroke-miterlimit:2;"
   id="svg1"
   sodipodi:docname="low-beam.svg"
   inkscape:version="1.3.2 (091e20e, 2023-11-25, custom)"
   xmlns:inkscape="http://www.inkscape.org/namespaces/inkscape"
   xmlns:sodipodi="http://sodipodi.sourceforge.net/DTD/sodipodi-0.dtd"
   xmlns="http://www.w3.org/2000/svg"
   xmlns:svg="http://www.w3.org/2000/svg"><defs
   id="defs1" /><sodipodi:namedview
   id="namedview1"
   pagecolor="#505050"
   bordercolor="#eeeeee"
   borderopacity="1"
   inkscape:showpageshadow="0"
   inkscape:pageopacity="0"
   inkscape:pagecheckerboard="0"
   inkscape:deskcolor="#505050"
   showgrid="false"
   inkscape:zoom="1.4947552"
   inkscape:cx="285.6655"
   inkscape:cy="286"
   inkscape:window-width="1920"
   inkscape:window-height="1111"
   inkscape:window-x="-9"
   inkscape:window-y="-9"
   inkscape:window-maximized="1"
   inkscape:current-layer="svg1" />
    <path
   d="M57,418L142.2,390L135,366.7C135,366.7 51.4,392.5 49.6,394C48.8,394.8 57,418 57,418ZM512.5,417.9C513.1,418 520.8,394.5 520.4,394C518.9,392.7 435.8,365.8 435.2,366.5C434.8,366.8 427.2,390 427.2,390C427.2,390 512,417.9 512.5,417.9ZM182.2,380.4C212.9,370.7 237.4,350 247.2,325.5C259,296.1 256.9,260.3 241.9,235.4C231.2,217.8 215.2,204.4 193.9,195.4C184.6,191.5 167.5,186.6 166.1,187.4C164.2,188.6 157.7,206.1 154.5,218.6C148.5,241.9 146.7,257.2 146.6,285C146.6,303.5 147,312.4 148.3,321.4C152.1,346.4 156.5,363.6 162.6,376.9L166,384.3L170,383.6C172.2,383.3 177.7,381.8 182.2,380.4ZM408.4,375.5C421.5,344.2 427.2,295.8 422.6,256.5C419.4,230.2 414.3,209.2 407.4,194.2C404.3,187.3 404,187 401.3,187.6C364.8,195.7 338.2,214.6 324.8,242C309.4,273.5 313.1,316.7 333.5,343.7C345.5,359.7 366.7,374 388,380.3C405.2,385.4 404.1,385.7 408.4,375.5ZM124,298L124,273L34,273L34,298L124,298ZM537,298L537,273L446,273L446,298L537,298ZM133.9,204.7C134.8,204.6 142.8,181.5 142.7,181.3C142.1,180.7 56.8,152.9 56.5,153.2C55.3,154.5 49.1,176.5 49.7,177.1C50.9,178.2 132.3,204.9 133.9,204.7ZM435.7,205C435.7,205 520.7,177.5 521,177.3C521.3,177 514.2,154.1 513.5,153.2C513.3,152.9 427.8,180.8 427.4,181.3C427.3,181.5 435.7,205 435.7,205Z"
   style="fill-rule:nonzero;stroke:none;stroke-opacity:1;fill:#ffffff;fill-opacity:1"
   id="path1" />
</svg>
