<?xml version="1.0" encoding="UTF-8" standalone="no"?>
<svg
   width="100%"
   height="100%"
   viewBox="0 0 572 572"
   version="1.1"
   xml:space="preserve"
   style="fill-rule:evenodd;clip-rule:evenodd;stroke-linejoin:round;stroke-miterlimit:2;"
   id="svg1"
   sodipodi:docname="parking-brake.svg"
   inkscape:version="1.3.2 (091e20e, 2023-11-25, custom)"
   xmlns:inkscape="http://www.inkscape.org/namespaces/inkscape"
   xmlns:sodipodi="http://sodipodi.sourceforge.net/DTD/sodipodi-0.dtd"
   xmlns="http://www.w3.org/2000/svg"
   xmlns:svg="http://www.w3.org/2000/svg"><defs
   id="defs1" /><sodipodi:namedview
   id="namedview1"
   pagecolor="#505050"
   bordercolor="#eeeeee"
   borderopacity="1"
   inkscape:showpageshadow="0"
   inkscape:pageopacity="0"
   inkscape:pagecheckerboard="0"
   inkscape:deskcolor="#505050"
   showgrid="false"
   inkscape:zoom="1.4947552"
   inkscape:cx="285.6655"
   inkscape:cy="286"
   inkscape:window-width="1920"
   inkscape:window-height="1111"
   inkscape:window-x="-9"
   inkscape:window-y="-9"
   inkscape:window-maximized="1"
   inkscape:current-layer="svg1" />
    <path
   d="M306.1,489.9C346.9,485.8 385.7,469.7 416,444.5C426,436.2 443.2,418.3 450.1,409C509.8,328.5 503.3,218 434.8,145.4C380.2,87.6 296.6,66.7 221.2,91.9C113.1,128.1 55.5,245 92.6,353.2C113.7,414.9 164.2,463.3 227.3,482.4C237.8,485.6 258,489.5 268,490.3C278.2,491.1 296.4,490.9 306.1,489.9ZM106.5,479L126.8,455.5L118.6,447C69.1,395.6 45.6,323.8 55.6,254C62.5,205.7 84.7,160.1 117.8,125.8L124.3,119.1L101.9,95.5L95.4,102.5C56.4,144.8 33.5,192 24.9,248.1C21.7,268.5 21.7,302.4 24.8,322.5C33.8,380.6 57.8,429.4 97.4,469.8L106.5,479ZM492.3,449.8C522.9,411.6 541,368.7 548.1,317C549.9,304.6 549.9,266.4 548.1,254C540.3,197.7 519.8,152 483.4,110C478.9,104.8 470,95.6 470,95.6L447.7,119.1L455.2,126.8C484.5,156.6 506,198.3 514.4,241.9C528.7,315.4 506.2,392.1 454.5,445.8L445.3,455.4L465.5,478.8L473.8,470.7C478.4,466.2 486.8,456.8 492.3,449.8ZM273,460.9C245,458.9 214.7,448.7 191.3,433.5C129.8,393.4 100.1,322.2 114.6,250C121.7,214.7 143.1,178.4 171.1,154.2C253.7,82.6 379.8,102.7 436.5,196.5C452.2,222.5 459.9,249.3 460.7,281.5C461.4,306.3 458.6,324.1 450.6,346.3C424.1,419.4 351,466.6 273,460.9ZM221,404L250,404L250,313L284.3,313C315.4,313 316.968,312.192 326.6,311C330.9,309.9 336.7,308 339.5,306.9C354.3,300.5 368.1,287.7 374.9,273.9C381,261.4 382.5,254.7 382.5,239.5C382.5,224 381.4,218.8 375.3,206.1C369,192.9 359.3,183.2 346,176.7C329.1,168.4 331.2,168.6 272.8,168.2L221,167.9L221,404ZM284.8,197.2C318.7,197.5 319.6,197.6 325.5,199.9C333.8,203.3 342.8,212.3 346,220.5C353.5,240.4 349.6,257.7 334.3,272C330.9,275.2 326.855,278.738 322.3,280.6C312.17,284.739 283.3,283.8 283.3,283.8L250,284.1L250,196.9L284.8,197.2Z"
   style="fill-rule:nonzero;fill:#ffffff;fill-opacity:1"
   id="path1" />
</svg>
