<?xml version="1.0" encoding="UTF-8" standalone="no"?>
<svg
   width="100%"
   height="100%"
   viewBox="0 0 572 572"
   version="1.1"
   xml:space="preserve"
   style="fill-rule:evenodd;clip-rule:evenodd;stroke-linejoin:round;stroke-miterlimit:2;"
   id="svg1"
   sodipodi:docname="transmission-temp.svg"
   inkscape:version="1.3.2 (091e20e, 2023-11-25, custom)"
   xmlns:inkscape="http://www.inkscape.org/namespaces/inkscape"
   xmlns:sodipodi="http://sodipodi.sourceforge.net/DTD/sodipodi-0.dtd"
   xmlns="http://www.w3.org/2000/svg"
   xmlns:svg="http://www.w3.org/2000/svg"><defs
   id="defs1" /><sodipodi:namedview
   id="namedview1"
   pagecolor="#505050"
   bordercolor="#eeeeee"
   borderopacity="1"
   inkscape:showpageshadow="0"
   inkscape:pageopacity="0"
   inkscape:pagecheckerboard="0"
   inkscape:deskcolor="#505050"
   showgrid="false"
   inkscape:zoom="1.4947552"
   inkscape:cx="285.6655"
   inkscape:cy="286"
   inkscape:window-width="1920"
   inkscape:window-height="1111"
   inkscape:window-x="-9"
   inkscape:window-y="-9"
   inkscape:window-maximized="1"
   inkscape:current-layer="svg1" />
    <path
   d="M295.019,26.127C292.522,26.136 289.519,26.163 285.9,26.2L264.8,26.5L257.3,50C253.2,62.9 249.6,73.8 249.2,74.1C248.8,74.4 245.4,75.2 241.5,76C237.7,76.7 229.4,78.8 223.1,80.7L211.8,84.1L206.6,79.6C203.8,77.2 195.7,69.7 188.5,63.1C181.4,56.5 175.2,51 174.9,51C174,51 140.7,70 139.2,71.4C138.2,72.4 138.9,76.9 143,95.3C145.7,107.8 148,118.6 148,119.4C148,121.1 121.2,148 119.5,148C118.8,148 108,145.7 95.5,143C77,138.9 72.4,138.2 71.4,139.2C69.4,141.4 50.9,174.2 51.2,175C51.4,175.5 57.1,182.1 64.1,189.7C71,197.3 78.3,205.4 80.4,207.7L84.2,211.9L81.6,219.7C79.5,226.2 77.2,235.1 74.5,247.6C74.1,249.3 70.3,250.8 50.5,257.1L27,264.5L27,307.6L50.3,315C63,319 73.6,322.4 73.8,322.6C74,322.7 75.3,327.7 76.6,333.7C77.9,339.6 80.2,348 81.6,352.2C84.6,361.5 86.4,358.3 65.9,380.5C58,389.1 51.3,396.5 51.2,397.1C50.7,398.5 71.3,434 72.7,434C73.3,434 84.2,431.7 96.8,428.9L119.8,423.9L134,438L148.2,452.2L143,476.1C140.1,489.3 137.9,500.2 138.1,500.4C138.3,500.7 146.6,505.5 156.6,511.3L174.6,521.7L184.6,512.6C190.1,507.6 198.5,500 203.1,495.8L211.6,488.1L219.6,490.6C223.9,492 232.2,494.2 237.9,495.5C243.6,496.9 248.7,498.3 249.1,498.7C249.5,499.1 253.1,509.6 257,522C261,534.4 264.4,544.8 264.7,545.3C264.9,545.7 274.7,545.9 286.3,545.8L307.5,545.5L314.9,521.9L322.4,498.3L332.2,496C337.7,494.8 346.2,492.6 351.2,491L360.3,488.1L378.7,504.8C388.8,514 397.4,521.4 397.8,521.3C398.6,521.1 433.2,501.2 433.8,500.5C434,500.3 431.8,489.4 429,476.3L423.7,452.4L437.9,438.2L452,424L474.7,429C487.1,431.8 498,434 498.9,434C500.7,434 521.5,399 520.9,397.2C520.7,396.6 513.5,388.7 505,379.5C496.5,370.3 489.2,362.2 488.8,361.6C488.4,360.9 489.2,356.8 490.6,352.4C492,348.1 494.2,339.8 495.5,334.1C496.9,328.4 498.3,323.4 498.7,323C499.1,322.6 510,319 522.8,314.9L546,307.6L546,265.1L526.8,259C516.2,255.6 505.4,252.2 502.7,251.4C499.4,250.3 497.9,249.2 497.5,247.7C494.7,234.6 492.5,226.2 490.4,219.8L487.9,212.1L504,194.3C512.9,184.6 520.4,176.1 520.7,175.4C521,174.5 502.9,141.1 500.5,138.2C500.4,138.1 489.4,140.4 476.1,143.3L451.8,148.6L437.8,134.5L423.9,120.5L428.5,99.5C431,87.9 433.3,76.9 433.6,75L434.1,71.5L416.4,61.5C406.7,56 398.2,51.5 397.6,51.5C396.9,51.5 388.5,58.7 379,67.5C369.5,76.3 361.1,83.6 360.4,83.8C359.6,84 354.8,82.8 349.7,81.1C344.7,79.5 336.8,77.3 332.3,76.4C327.8,75.5 323.7,74.4 323.3,74.1C322.8,73.8 319.3,63.6 315.5,51.5C311.7,39.4 308.2,28.7 307.8,27.7C307.175,26.45 305.94,26.116 296.226,26.124L295.019,26.127ZM262.5,464.5C228.4,459.7 198.7,446.8 172.3,425.4C102.7,368.9 85.8,267.6 133.3,191.5C150.5,163.9 179.2,138 207.7,124.4C236.4,110.7 270.2,104.3 299.1,106.9C344.5,111 381,127.8 412.4,158.8C433,179.2 447.4,202.2 456.5,229.3C468.6,265.5 468.8,306.3 456.9,342.3C453.2,353.6 443.8,373.4 437.5,383.2C410.6,424.9 366.3,454.6 318.1,463.1C302.9,465.8 276.4,466.5 262.5,464.5ZM303.1,186L302.8,165.7C302.5,145.4 302.5,145.3 299.7,141.2C292.5,130.2 275.5,130.2 268.3,141.2L265.5,145.4L265.2,256.1L265,366.8L258.6,373.3C253,378.9 251.9,380.6 250,386.9C244.9,403.4 251,420.7 264.7,428.7C272.5,433.2 275.9,434 285.5,433.7C293.5,433.4 295.2,433 300.8,430.1C308.2,426.1 313.3,420.8 316.9,413.1C319.1,408.3 319.5,406.2 319.5,398C319.5,389.7 319.2,387.8 316.7,382.9C315.2,379.7 311.6,375 308.5,372.1L303,366.9L303,328L386,328L386,304L303,304L303,269L386,269L386,245L303,245L303,210L386,210L386,186L303.1,186Z"
   style="fill-rule:nonzero;fill:#ffffff;fill-opacity:1"
   id="path1" />
</svg>
