<?xml version="1.0" encoding="UTF-8" standalone="no"?>
<svg
   width="100%"
   height="100%"
   viewBox="0 0 572 572"
   version="1.1"
   xml:space="preserve"
   style="fill-rule:evenodd;clip-rule:evenodd;stroke-linejoin:round;stroke-miterlimit:2;"
   id="svg1"
   sodipodi:docname="water-temp.svg"
   inkscape:version="1.3.2 (091e20e, 2023-11-25, custom)"
   xmlns:inkscape="http://www.inkscape.org/namespaces/inkscape"
   xmlns:sodipodi="http://sodipodi.sourceforge.net/DTD/sodipodi-0.dtd"
   xmlns="http://www.w3.org/2000/svg"
   xmlns:svg="http://www.w3.org/2000/svg"><defs
   id="defs1" /><sodipodi:namedview
   id="namedview1"
   pagecolor="#505050"
   bordercolor="#eeeeee"
   borderopacity="1"
   inkscape:showpageshadow="0"
   inkscape:pageopacity="0"
   inkscape:pagecheckerboard="0"
   inkscape:deskcolor="#505050"
   inkscape:zoom="1.4947552"
   inkscape:cx="285.6655"
   inkscape:cy="286"
   inkscape:window-width="1920"
   inkscape:window-height="1111"
   inkscape:window-x="-9"
   inkscape:window-y="-9"
   inkscape:window-maximized="1"
   inkscape:current-layer="svg1" />
    <path
   id="layer102"
   d="M174,506.6C177.6,505.3 183.9,502.2 188,499.6C199.4,492.5 205.2,490 214.3,488.4C229.3,485.8 238.4,488.2 259,500.6C271.4,508 284.1,510.6 296.8,508.4C305.4,506.9 310.6,504.5 320.5,497.2C331.8,489 343.7,486 357.3,488.1C367,489.6 372.2,491.7 382.7,498.4C406.8,513.7 424.7,513.3 448.8,496.9C459.9,489.3 464,487.8 474.5,487.3C482.5,487 484.4,487.2 491.5,489.8C495.9,491.4 503,493.4 503,493.4L503,461.2L498.2,459.2C491.2,456.2 485.5,455.1 477,455C465.2,455 455.4,458.3 444,466C433.4,473.2 425.6,476.3 417,476.8C406.5,477.4 400,475.3 386,466.9C371.4,458 362.2,455 350.1,455C336.9,455 327.9,458 314.9,466.7C296.2,479.2 277.9,479.3 260.2,467.2C246.8,458.1 237.5,454.9 223.8,454.8C210.1,454.8 201.5,457.6 185.3,467.8C175,474.3 167,477 158.5,477C149.5,477 142.1,474.3 129.1,466.2C114.6,457 109.5,455.5 95,455.6C85.2,455.6 82.6,456 77,458.2L70.5,460.7L70.5,494C70.5,494 72.8,493.1 74.8,492.1C81.9,488.5 90.9,486.7 99.5,487.3C108.9,487.9 113.9,489.8 124.3,496.9C143.1,509.7 156.8,512.4 174,506.6ZM284.961,433.863C308.896,433.732 333.08,415.463 333.62,388.425C333.996,369.617 322.691,354.299 312,349.3L312,311L416,311L416,280L312.5,279.5L312,234L417,234L417,204L312,204L312,159L416.5,158.5L417.1,128L312.2,128L311.653,81.544C311.06,69.953 297.2,63.5 285.5,63.5C272.876,63.5 259.874,71.386 259.5,82.5L259,349.6C246.316,359.698 238.68,375.981 239.137,388.273C240.227,417.618 261.977,433.989 284.961,433.863ZM63.3,396.5C74.9,391.2 82,389.6 95,389.6C109.3,389.5 117.3,391.7 135,400.1C141.9,403.4 150.7,407 154.5,408.1C168.5,412 189.6,411.6 199,407.1L202,405.5L202,375C202,375 196.5,375.7 191.5,376.5C180.9,378.3 165.2,378.4 157.8,376.9C154.9,376.3 146.7,373 139.5,369.5C118.3,359.2 106.7,356.3 90.5,357.3C75,358.3 62.9,362.7 46.8,373.3L39,378.4L39,411L47.5,405.4C52.2,402.4 59.3,398.4 63.3,396.5ZM417.9,408C422,406.9 430.8,403.2 437.5,400C454.7,391.6 462.7,389.5 477,389.6C494.3,389.6 506.5,393.7 524.5,405.4L533,411L532.9,378.5L528.3,375.1C520.9,369.6 506.2,362.3 498,360C476.9,354.1 457.7,356.9 432.8,369.5C426.8,372.6 419.1,375.7 415.7,376.5C407.7,378.4 391.9,378.4 380.5,376.5C375.6,375.7 370.8,375 370.8,375L370,406L372.8,407.2C383.5,411.5 404.3,411.9 417.9,408Z"
   style="fill-rule:nonzero;fill:#ffffff;fill-opacity:1" />
</svg>
