<?xml version="1.0" encoding="UTF-8" standalone="no"?>
<!-- Created with Inkscape (http://www.inkscape.org/) -->

<svg
   width="458.0386"
   height="426.91217"
   viewBox="0 0 121.18938 112.95385"
   version="1.1"
   id="svg1"
   inkscape:version="1.3.2 (091e20e, 2023-11-25, custom)"
   sodipodi:docname="Tach Gauge.svg"
   xmlns:inkscape="http://www.inkscape.org/namespaces/inkscape"
   xmlns:sodipodi="http://sodipodi.sourceforge.net/DTD/sodipodi-0.dtd"
   xmlns="http://www.w3.org/2000/svg"
   xmlns:svg="http://www.w3.org/2000/svg">
  <sodipodi:namedview
     id="namedview1"
     pagecolor="#505050"
     bordercolor="#eeeeee"
     borderopacity="1"
     inkscape:showpageshadow="0"
     inkscape:pageopacity="0"
     inkscape:pagecheckerboard="true"
     inkscape:deskcolor="#505050"
     inkscape:document-units="px"
     showgrid="true"
     inkscape:zoom="1.4142136"
     inkscape:cx="183.14066"
     inkscape:cy="240.76986"
     inkscape:window-width="1920"
     inkscape:window-height="1111"
     inkscape:window-x="-9"
     inkscape:window-y="-9"
     inkscape:window-maximized="1"
     inkscape:current-layer="Big_Ticks"
     inkscape:export-bgcolor="#ffffff00" />
  <defs
     id="defs1">
    <inkscape:path-effect
       effect="skeletal"
       id="path-effect21"
       is_visible="true"
       lpeversion="1"
       pattern="#Orange_Triangle"
       copytype="repeated"
       prop_scale="1"
       scale_y_rel="false"
       spacing="8.75"
       normal_offset="-3.2"
       tang_offset="10.17"
       prop_units="false"
       vertical_pattern="true"
       hide_knot="false"
       fuse_tolerance="0" />
  </defs>
  <g
     inkscape:groupmode="layer"
     id="layer6"
     inkscape:label="Color Ring"
     transform="translate(-2.9027438,-2.9172957)">
    <path
       d="M 33.466447,115.52717 C 14.851425,104.81212 3.3556616,84.990541 3.2996187,63.511988 3.2997577,30.265709 30.251158,3.3143099 63.497438,3.3141708 96.743714,3.3143076 123.69512,30.265708 123.69525,63.511988"
       style="display:inline;fill:none;fill-opacity:0.597015;stroke:#ffffff;stroke-width:0.79375;stroke-dasharray:none;stroke-opacity:1"
       id="Orange_Ring"
       sodipodi:nodetypes="cccc" />
    <path
       d="m 24.713924,106.63355 c -0.775015,0.0929 -1.557065,0.17035 -2.345549,0.23218 0.757852,0.72805 1.535028,1.4365 2.330862,2.12422 -0.01158,-0.79075 -0.0065,-1.57636 0.01469,-2.3564 z m -8.073052,-9.049591 c -0.7784,-0.06641 -1.560427,-0.148726 -2.345478,-0.247118 0.593883,0.865561 1.209731,1.716086 1.84688,2.550428 0.151812,-0.775784 0.318156,-1.543702 0.498598,-2.30331 z M 10.549345,87.095319 C 9.7998839,86.875031 9.050206,86.638374 8.3009133,86.38519 8.7098424,87.352081 9.1433789,88.308492 9.6008577,89.253276 9.9047209,88.52321 10.221029,87.803743 10.549345,87.095319 Z M 6.6893441,75.598694 C 6.001148,75.229953 5.3161443,74.844388 4.6349351,74.44184 c 0.202991,1.032039 0.4332315,2.058154 0.6900562,3.077198 0.4445735,-0.653595 0.8995031,-1.293858 1.3643528,-1.920344 z M 5.3108728,63.525151 c -0.00856,-0.0074 -0.017114,-0.01473 -0.025669,-0.02211 -0.5834693,-0.50422 -1.1598661,-1.024148 -1.7287161,-1.559415 -0.014527,0.520189 -0.022117,1.040804 -0.022708,1.561696 0.00272,0.537313 0.013051,1.074128 0.030897,1.610296 0.5739428,-0.54637 1.1561534,-1.076675 1.7461957,-1.59047 z M 6.6103313,51.438831 C 6.1393782,50.815494 5.6781529,50.178436 5.2271511,49.528043 4.9788635,50.550208 4.7571079,51.579035 4.5623966,52.613286 5.2413326,52.205161 5.9241854,51.813702 6.6103313,51.438831 Z M 10.37414,39.895116 C 10.039889,39.188808 9.7178203,38.471233 9.4084295,37.742779 8.9574873,38.692537 8.5310433,39.653866 8.1296096,40.625531 8.8775491,40.36542 9.6259337,40.121974 10.37414,39.895116 Z m 6.035594,-10.536498 c -0.182093,-0.760031 -0.349549,-1.528875 -0.501873,-2.306143 -0.637442,0.838351 -1.25242,1.693184 -1.844421,2.563262 0.785332,-0.102346 1.567638,-0.188027 2.346294,-0.257119 z m 8.113694,-9.058976 c -0.01519,-0.782013 -0.01381,-1.569446 0.0042,-2.361676 -0.80315,0.68295 -1.588551,1.387839 -2.354967,2.114155 0.790865,0.06629 1.574581,0.148961 2.350764,0.247521 z m 9.843285,-7.119844 c 0.147345,-0.767682 0.311252,-1.537312 0.491799,-2.308267 -0.924622,0.500618 -1.836405,1.02521 -2.734113,1.573264 0.757169,0.231236 1.504736,0.476403 2.242314,0.735003 z M 45.454125,8.2336062 c 0.300125,-0.7217395 0.616812,-1.4419559 0.950139,-2.1600257 -1.007093,0.3021333 -2.006259,0.6302737 -2.996259,0.9839092 0.694226,0.380729 1.376395,0.772933 2.04612,1.1761165 z M 57.321023,5.6535284 c 0.443154,-0.6441862 0.902869,-1.2833779 1.379223,-1.9169514 -1.050565,0.087493 -2.098112,0.2030275 -3.141404,0.3460908 0.602035,0.5147649 1.189557,1.0385503 1.762181,1.5708606 z m 12.162681,-0.02117 c 0.570818,-0.5342669 1.156573,-1.0600484 1.75688,-1.5768491 -1.043832,-0.1395337 -2.09184,-0.2515057 -3.142787,-0.3354038 0.478583,0.6319513 0.940526,1.2695768 1.385907,1.9122529 z M 81.35937,8.1726869 c 0.66839,-0.4053894 1.349263,-0.799839 2.042234,-1.1828533 -0.99117,-0.3503665 -1.991425,-0.6752052 -2.99953,-0.9740039 0.335713,0.7169575 0.654785,1.4361178 0.957296,2.1568572 z m 11.103674,4.9095471 c 0.736715,-0.261055 1.483459,-0.508717 2.239844,-0.742488 -0.899506,-0.545045 -1.813009,-1.066596 -2.739271,-1.564141 0.18309,0.770353 0.34954,1.539437 0.499427,2.306629 z m 9.867046,7.086305 c 0.77579,-0.101265 1.55915,-0.186682 2.34971,-0.255755 -0.76885,-0.723568 -1.5566,-1.425677 -2.36202,-2.105813 0.0207,0.792137 0.0248,1.579535 0.0123,2.361568 z m 8.14525,9.030318 c 0.77889,0.06628 1.56148,0.149124 2.34716,0.248607 -0.59495,-0.868 -1.21283,-1.720676 -1.85315,-2.556791 -0.14967,0.777883 -0.3145,1.547406 -0.49401,2.308184 z m 6.07067,10.515636 c 0.74895,0.223998 1.49813,0.464558 2.24692,0.721758 -0.40463,-0.970216 -0.83425,-1.930018 -1.28833,-2.878169 -0.30698,0.729747 -0.62667,1.44868 -0.95859,2.156411 z m 3.80198,11.53035 c 0.6874,0.371962 1.37156,0.760487 2.05187,1.165651 -0.19818,-1.033432 -0.42337,-2.061359 -0.67505,-3.082546 -0.44884,0.652363 -0.90795,1.291457 -1.37682,1.916895 z m 1.34085,12.080422 c 0.0676,0.05803 0.13509,0.116272 0.20251,0.17473 0.52496,0.434985 1.04992,0.869971 1.57488,1.304957 l 0,-1.304961 c -6.7e-4,-0.588545 -0.0103,-1.176736 -0.0287,-1.76436 -0.57525,0.545731 -1.1583,1.075738 -1.74867,1.589634 z"
       style="display:inline;fill:#ffffff;fill-opacity:1;stroke:none;stroke-width:1.00013;stroke-dasharray:none"
       id="Orange_Ticks"
       sodipodi:nodetypes="ccccc"
       transform="translate(6.4618685e-5,1.1750885e-4)"
       inkscape:path-effect="#path-effect21"
       inkscape:original-d="M 35.624182,111.78232 C 18.345065,101.83623 7.6742949,83.437146 7.6222738,63.5 7.6224029,32.639637 32.639637,7.6224029 63.5,7.6222738 94.360364,7.6224008 119.3776,32.639636 119.37773,63.5 v 3.369059" />
  </g>
</svg>
