<?xml version="1.0" encoding="UTF-8" standalone="no"?>
<!-- Created with Inkscape (http://www.inkscape.org/) -->

<svg
   width="452.67477"
   height="422.75949"
   viewBox="0 0 119.7702 111.85512"
   version="1.1"
   id="svg1"
   inkscape:version="1.3.2 (091e20e, 2023-11-25, custom)"
   sodipodi:docname="Tach Gauge.svg"
   xmlns:inkscape="http://www.inkscape.org/namespaces/inkscape"
   xmlns:sodipodi="http://sodipodi.sourceforge.net/DTD/sodipodi-0.dtd"
   xmlns="http://www.w3.org/2000/svg"
   xmlns:svg="http://www.w3.org/2000/svg">
  <sodipodi:namedview
     id="namedview1"
     pagecolor="#505050"
     bordercolor="#eeeeee"
     borderopacity="1"
     inkscape:showpageshadow="0"
     inkscape:pageopacity="0"
     inkscape:pagecheckerboard="true"
     inkscape:deskcolor="#505050"
     inkscape:document-units="px"
     showgrid="true"
     inkscape:zoom="1.4142136"
     inkscape:cx="183.14066"
     inkscape:cy="240.76986"
     inkscape:window-width="1920"
     inkscape:window-height="1111"
     inkscape:window-x="-9"
     inkscape:window-y="-9"
     inkscape:window-maximized="1"
     inkscape:current-layer="layer3"
     inkscape:export-bgcolor="#ffffff00" />
  <defs
     id="defs1">
    <inkscape:path-effect
       effect="skeletal"
       id="path-effect19"
       is_visible="true"
       lpeversion="1"
       pattern="#Small_tick"
       copytype="repeated"
       prop_scale="1"
       scale_y_rel="false"
       spacing="5.19"
       normal_offset="-2"
       tang_offset="-0.4"
       prop_units="false"
       vertical_pattern="true"
       hide_knot="false"
       fuse_tolerance="0" />
  </defs>
  <g
     inkscape:groupmode="layer"
     id="layer5"
     inkscape:label="Small Ticks"
     transform="translate(-3.6149683,-3.6150146)">
    <path
       d="m 33.998961,115.47001 1.976339,-3.49588 c -0.191227,-0.10811 -0.381718,-0.21741 -0.571468,-0.3279 l -2.019906,3.46882 c 0.204194,0.11956 0.409208,0.23788 0.615035,0.35496 z m -5.283664,-3.40273 2.346638,-3.24617 c -0.177596,-0.12836 -0.354391,-0.25781 -0.530378,-0.38833 l -2.386035,3.21669 c 0.189041,0.14039 0.378968,0.27967 0.569775,0.41781 z m -4.868044,-3.93667 2.679922,-2.97498 c -0.162791,-0.1466 -0.324715,-0.29417 -0.485765,-0.44269 l -2.715149,2.94309 c 0.172713,0.1592 0.34638,0.3174 0.520992,0.47458 z m -4.421151,-4.41668 2.976193,-2.68234 c -0.146813,-0.1628 -0.292691,-0.32646 -0.43763,-0.49096 l -3.007249,2.64803 c 0.155212,0.17598 0.311443,0.35108 0.468686,0.52527 z m -3.942983,-4.842766 3.235448,-2.368221 c -0.129658,-0.176984 -0.258317,-0.35471 -0.385969,-0.533165 l -3.262336,2.331487 c 0.136537,0.190745 0.274158,0.380716 0.412857,0.569899 z m -3.433541,-5.214931 3.45769,-2.032637 c -0.11133,-0.189142 -0.221595,-0.378911 -0.330787,-0.569295 l -3.480407,1.993486 c 0.116686,0.20348 0.234523,0.406299 0.353504,0.608446 z m -2.8928249,-5.53317 3.6429179,-1.675587 c -0.09183,-0.199273 -0.182525,-0.39906 -0.272082,-0.599348 l -3.6614647,1.634016 c 0.095661,0.21419 0.1925401,0.427834 0.2906288,0.640919 z M 6.8359183,82.325578 10.627049,81.028509 c -0.07115,-0.20738 -0.141104,-0.415161 -0.209852,-0.623327 l -3.8055084,1.253081 c 0.073462,0.222875 0.1482079,0.445317 0.2242297,0.667315 z m -1.7175704,-6.007874 3.90233,-0.897085 c -0.0493,-0.213463 -0.097336,-0.427211 -0.1440999,-0.641231 l -3.9125375,0.850678 c 0.050089,0.229535 0.1015269,0.458752 0.1543074,0.687638 z M 4.0353161,70.153364 8.011831,69.67773 C 7.985557,69.460211 7.9606131,69.242519 7.9370068,69.02467 l -3.9825525,0.426808 c 0.025541,0.234171 0.052497,0.468137 0.080862,0.701886 z m -0.417219,-6.266881 4.0136855,-0.03272 c -0.00111,-0.11791 -0.00182,-0.235836 -0.00213,-0.353777 2e-7,-0.101669 2.912e-4,-0.203334 8.723e-4,-0.304993 l -4.0143279,-0.01775 c -7.389e-4,0.109311 -0.00117,0.218635 -0.00129,0.327972 6.384e-4,0.127116 0.0017,0.254204 0.00319,0.381263 z m 0.3007285,-6.270062 3.9905689,0.401797 c 0.02223,-0.21829 0.045768,-0.436442 0.07061,-0.654444 L 3.9946995,56.91415 c -0.026681,0.233909 -0.051974,0.468004 -0.075874,0.702271 z m 0.9617591,-6.188058 3.9261438,0.819008 C 8.8517423,52.032605 8.898014,51.818099 8.945538,51.603866 L 5.0291528,50.738892 c -0.050861,0.22952 -0.1003858,0.459348 -0.1485681,0.689471 z m 1.5963445,-6.048641 3.8218218,1.219693 c 0.06689,-0.20906 0.134994,-0.417736 0.204296,-0.626017 L 6.695479,44.7096 c -0.074137,0.222947 -0.1469894,0.446325 -0.2185498,0.670122 z m 2.2068536,-5.8511 3.6776022,1.603854 c 0.08787,-0.201171 0.176895,-0.401836 0.267071,-0.601981 L 8.9696021,38.884399 c -0.09651,0.214191 -0.1917847,0.428937 -0.2858193,0.644223 z m 2.7932872,-5.595433 3.493485,1.971487 c 0.107942,-0.191099 0.216988,-0.381569 0.327134,-0.571397 l -3.470243,-2.011868 c -0.117978,0.203253 -0.234772,0.407184 -0.350376,0.611778 z m 3.355644,-5.281642 3.269472,2.322595 c 0.127108,-0.178845 0.255272,-0.356938 0.384483,-0.534266 l -3.241734,-2.361113 c -0.138542,0.190132 -0.275951,0.381065 -0.412221,0.572784 z m 3.893925,-4.909727 3.005561,2.657176 c 0.145372,-0.164408 0.291748,-0.327941 0.439121,-0.490585 l -2.973329,-2.693833 c -0.158202,0.174828 -0.315321,0.35058 -0.471353,0.527242 z m 4.408386,-4.471984 2.699662,2.968412 c 0.162375,-0.147675 0.325641,-0.294353 0.489784,-0.440029 l -2.663115,-3.00072 c -0.17636,0.156361 -0.351808,0.313809 -0.526331,0.472337 z m 4.856538,-3.961973 2.367921,3.237497 c 0.177095,-0.129529 0.354959,-0.25801 0.533576,-0.385437 l -2.329512,-3.265312 c -0.191455,0.136615 -0.382121,0.274367 -0.571985,0.413252 z m 5.235992,-3.426816 2.019653,3.466687 c 0.189633,-0.110479 0.379911,-0.219858 0.57082,-0.328134 l -1.979382,-3.490005 c -0.204368,0.115964 -0.408069,0.233117 -0.611091,0.351452 z m 5.557321,-2.8675803 1.65486,3.6559783 c 0.199988,-0.09052 0.400497,-0.179898 0.601515,-0.268118 L 39.428524,8.7265248 c -0.215097,0.09441 -0.429651,0.1900588 -0.643648,0.2869419 z m 5.820526,-2.28427 1.27354,3.8053723 c 0.20816,-0.06966 0.416719,-0.13813 0.625662,-0.205388 L 45.275059,6.509478 c -0.223644,0.071951 -0.446867,0.1451924 -0.669657,0.2197187 z m 6.025606,-1.6768833 0.875695,3.9148704 c 0.214149,-0.047903 0.428574,-0.094554 0.643261,-0.1399479 L 51.320125,4.9025303 c -0.230007,0.048588 -0.459717,0.098518 -0.689117,0.1497831 z m 6.172562,-1.0454205 0.461323,3.9844709 c 0.217956,-0.025236 0.436065,-0.049169 0.654312,-0.071795 L 57.5056,3.9297577 c -0.234189,0.024321 -0.468203,0.050035 -0.70203,0.077135 z m 6.261393,-0.3898818 0.03043,4.0141744 c 0.13486,-0.00102 0.269732,-0.00153 0.404611,-0.00153 0.08473,2e-7 0.16946,2.023e-4 0.254185,6.06e-4 l 0.01912,-4.014412 C 63.682214,3.6153144 63.591111,3.6149984 63.5,3.6148969 c -0.145035,1.616e-4 -0.290048,8.668e-4 -0.435037,0.00211 z m 6.268981,0.2963031 -0.40268,3.9909599 c 0.218311,0.022028 0.436485,0.045365 0.65451,0.070005 l 0.450445,-3.985735 c -0.233911,-0.026467 -0.468008,-0.051545 -0.702275,-0.07523 z m 6.188319,0.9561404 -0.819338,3.9268804 c 0.214807,0.04482 0.429354,0.090898 0.643628,0.1382286 L 76.211795,5.0174027 C 75.982254,4.9667477 75.752406,4.9174298 75.522263,4.8694546 Z m 6.049408,1.5909349 -1.21947,3.8229035 c 0.209118,0.06671 0.417855,0.134623 0.626197,0.20374 L 82.24191,6.678343 C 82.018923,6.6044038 81.795505,6.5317507 81.571671,6.4603895 Z m 5.85237,2.2016533 -1.603076,3.6790302 c 0.201248,0.08769 0.401992,0.176539 0.602218,0.266538 L 88.06844,8.9472894 C 87.854189,8.8509701 87.639385,8.755886 87.424041,8.6620428 Z m 5.597209,2.7882962 -1.970156,3.495259 c 0.191196,0.107771 0.381764,0.216647 0.571691,0.326624 L 93.63326,11.800166 C 93.429929,11.682371 93.225921,11.56576 93.02125,11.450339 Z m 5.283924,3.350862 -2.320711,3.271591 c 0.178961,0.126947 0.357171,0.254948 0.534616,0.383997 l 2.359168,-3.243893 c -0.190229,-0.138367 -0.381258,-0.275601 -0.573073,-0.411695 z m 4.912516,3.889352 -2.65474,3.008027 c 0.16454,0.145217 0.32821,0.291439 0.49099,0.438658 l 2.69134,-2.975834 c -0.17495,-0.158034 -0.35082,-0.314987 -0.52759,-0.470851 z m 4.47578,4.404105 -2.9659,2.702472 c 0.14783,0.162238 0.29466,0.325368 0.44049,0.489375 l 2.99824,-2.665941 c -0.15652,-0.17622 -0.31414,-0.351526 -0.47283,-0.525906 z m 3.96651,4.852985 -3.23533,2.370876 c 0.12969,0.176977 0.25834,0.354723 0.38593,0.533224 l 3.26318,-2.332484 c -0.13679,-0.191333 -0.27472,-0.381876 -0.41378,-0.571616 z m 3.43157,5.232944 -3.46486,2.022753 c 0.11064,0.189534 0.22019,0.379713 0.32864,0.570524 l 3.48822,-1.982498 c -0.11614,-0.204265 -0.23348,-0.407862 -0.352,-0.610779 z m 2.87255,5.554778 -3.65451,1.658105 c 0.0907,0.199907 0.18025,0.400337 0.26865,0.601276 l 3.67337,-1.615988 c -0.0946,-0.215013 -0.19044,-0.429482 -0.28751,-0.643393 z m 2.28944,5.818488 -3.80425,1.27693 c 0.0698,0.208098 0.1385,0.416596 0.20595,0.62548 l 3.81861,-1.232951 c -0.0721,-0.223579 -0.14559,-0.446736 -0.22031,-0.669459 z m 1.68226,6.024073 -3.91409,0.879229 c 0.0481,0.214107 0.0949,0.42849 0.14053,0.643137 l 3.92397,-0.833389 c -0.0488,-0.229962 -0.0989,-0.459625 -0.15041,-0.688977 z m 1.05102,6.171534 -3.98404,0.465003 c 0.0254,0.217932 0.0496,0.436018 0.0724,0.654244 l 3.98941,-0.417301 c -0.0245,-0.234161 -0.0505,-0.468148 -0.0778,-0.701946 z m 0.39568,6.260871 -4.01409,0.03425 c 0.001,0.151794 0.002,0.303602 0.002,0.45542 v 0.203407 l 4.01476,-8e-6 0,-0.203407 c -1.8e-4,-0.163249 -0.001,-0.326471 -0.003,-0.489661 z"
       style="display:inline;fill:#ffffff;fill-opacity:1;stroke:none;stroke-width:1.00013;stroke-dasharray:none"
       id="Radial_Pattern"
       sodipodi:nodetypes="ccccc"
       transform="translate(6.4618686e-5,1.1750885e-4)"
       inkscape:path-effect="#path-effect19"
       inkscape:original-d="M 35.624182,111.78232 C 18.345065,101.83623 7.6742949,83.437146 7.6222738,63.5 7.6224029,32.639637 32.639637,7.6224029 63.5,7.6222738 94.360364,7.6224008 119.3776,32.639636 119.37773,63.5 v 3.369059" />
  </g>
</svg>
