<?xml version="1.0" encoding="UTF-8" standalone="no"?>
<!-- Created with Inkscape (http://www.inkscape.org/) -->

<svg
   width="480"
   height="480"
   viewBox="0 0 127 127"
   version="1.1"
   id="svg1"
   inkscape:version="1.3.2 (091e20e, 2023-11-25, custom)"
   sodipodi:docname="Tach Gauge.svg"
   xmlns:inkscape="http://www.inkscape.org/namespaces/inkscape"
   xmlns:sodipodi="http://sodipodi.sourceforge.net/DTD/sodipodi-0.dtd"
   xmlns:xlink="http://www.w3.org/1999/xlink"
   xmlns="http://www.w3.org/2000/svg"
   xmlns:svg="http://www.w3.org/2000/svg">
  <sodipodi:namedview
     id="namedview1"
     pagecolor="#505050"
     bordercolor="#eeeeee"
     borderopacity="1"
     inkscape:showpageshadow="0"
     inkscape:pageopacity="0"
     inkscape:pagecheckerboard="true"
     inkscape:deskcolor="#505050"
     inkscape:document-units="px"
     showgrid="true"
     inkscape:zoom="1.4142136"
     inkscape:cx="183.14066"
     inkscape:cy="240.76986"
     inkscape:window-width="1920"
     inkscape:window-height="1111"
     inkscape:window-x="-9"
     inkscape:window-y="-9"
     inkscape:window-maximized="1"
     inkscape:current-layer="layer3"
     inkscape:export-bgcolor="#ffffff00" />
  <defs
     id="defs1">
    <inkscape:path-effect
       effect="skeletal"
       id="path-effect21"
       is_visible="true"
       lpeversion="1"
       pattern="#Orange_Triangle"
       copytype="repeated"
       prop_scale="1"
       scale_y_rel="false"
       spacing="8.75"
       normal_offset="-3.2"
       tang_offset="10.17"
       prop_units="false"
       vertical_pattern="true"
       hide_knot="false"
       fuse_tolerance="0" />
    <inkscape:path-effect
       effect="skeletal"
       id="path-effect19"
       is_visible="true"
       lpeversion="1"
       pattern="#Small_tick"
       copytype="repeated"
       prop_scale="1"
       scale_y_rel="false"
       spacing="5.19"
       normal_offset="-2"
       tang_offset="-0.4"
       prop_units="false"
       vertical_pattern="true"
       hide_knot="false"
       fuse_tolerance="0" />
    <linearGradient
       id="linearGradient16"
       inkscape:collect="always">
      <stop
         style="stop-color:#ffffff;stop-opacity:1;"
         offset="0"
         id="stop16" />
      <stop
         style="stop-color:#ffffff;stop-opacity:0;"
         offset="1"
         id="stop17" />
    </linearGradient>
    <inkscape:path-effect
       effect="skeletal"
       id="path-effect16"
       is_visible="true"
       lpeversion="1"
       pattern="#Tick"
       copytype="repeated"
       prop_scale="1"
       scale_y_rel="false"
       spacing="19.95"
       normal_offset="0.2"
       tang_offset="21.48"
       prop_units="false"
       vertical_pattern="true"
       hide_knot="false"
       fuse_tolerance="0" />
    <inkscape:path-effect
       effect="skeletal"
       id="path-effect14"
       is_visible="true"
       lpeversion="1"
       pattern="#Tick"
       copytype="repeated"
       prop_scale="1"
       scale_y_rel="false"
       spacing="16.45"
       normal_offset="2.9"
       tang_offset="0"
       prop_units="false"
       vertical_pattern="true"
       hide_knot="false"
       fuse_tolerance="0" />
    <inkscape:path-effect
       effect="skeletal"
       id="path-effect12"
       is_visible="true"
       lpeversion="1"
       pattern="#Tick"
       copytype="repeated"
       prop_scale="1"
       scale_y_rel="false"
       spacing="18.05"
       normal_offset="2.9"
       tang_offset="-2.6"
       prop_units="false"
       vertical_pattern="true"
       hide_knot="false"
       fuse_tolerance="0" />
    <inkscape:path-effect
       effect="skeletal"
       id="path-effect8"
       is_visible="false"
       lpeversion="1"
       pattern="#Tick"
       copytype="repeated"
       prop_scale="1"
       scale_y_rel="false"
       spacing="10"
       normal_offset="0"
       tang_offset="0"
       prop_units="false"
       vertical_pattern="true"
       hide_knot="false"
       fuse_tolerance="0" />
    <inkscape:path-effect
       effect="clone_original"
       linkeditem=""
       id="path-effect7"
       is_visible="true"
       lpeversion="1"
       method="d"
       attributes=""
       css_properties=""
       allow_transforms="true" />
    <inkscape:path-effect
       effect="fillet_chamfer"
       id="path-effect6"
       is_visible="true"
       lpeversion="1"
       nodesatellites_param="F,0,0,1,0,9.0253164,0,1 @ F,0,0,1,0,19.928816,0,1 @ F,0,0,1,0,19.928816,0,1 @ F,0,1,1,0,9.0253164,0,1"
       radius="0"
       unit="px"
       method="auto"
       mode="F"
       chamfer_steps="1"
       flexible="false"
       use_knot_distance="true"
       apply_no_radius="true"
       apply_with_radius="true"
       only_selected="false"
       hide_knots="false" />
    <inkscape:path-effect
       effect="mirror_symmetry"
       start_point="62.608777,120.76139"
       end_point="62.311701,100.85731"
       center_point="62.460239,110.80935"
       id="path-effect1"
       is_visible="true"
       lpeversion="1.2"
       lpesatellites=""
       mode="free"
       discard_orig_path="false"
       fuse_paths="true"
       oposite_fuse="false"
       split_items="false"
       split_open="false"
       link_styles="false" />
    <linearGradient
       id="linearGradient2"
       inkscape:collect="always">
      <stop
         style="stop-color:#000000;stop-opacity:1;"
         offset="0.67692858"
         id="stop2" />
      <stop
         style="stop-color:#000000;stop-opacity:0;"
         offset="1"
         id="stop3" />
    </linearGradient>
    <radialGradient
       inkscape:collect="always"
       xlink:href="#linearGradient2"
       id="radialGradient3"
       cx="63.5"
       cy="63.5"
       fx="63.5"
       fy="63.5"
       r="63.5"
       gradientUnits="userSpaceOnUse"
       gradientTransform="matrix(0.91666666,0,0,0.91666666,5.2916679,5.2916679)" />
    <inkscape:path-effect
       effect="skeletal"
       id="path-effect16-4"
       is_visible="true"
       lpeversion="1"
       pattern="#rect16"
       copytype="repeated"
       prop_scale="1"
       scale_y_rel="false"
       spacing="18.05"
       normal_offset="2.9"
       tang_offset="20.78"
       prop_units="false"
       vertical_pattern="true"
       hide_knot="false"
       fuse_tolerance="0" />
    <linearGradient
       inkscape:collect="always"
       xlink:href="#linearGradient16"
       id="linearGradient17"
       x1="8.3614025"
       y1="59.894945"
       x2="15.8696"
       y2="59.894945"
       gradientUnits="userSpaceOnUse"
       gradientTransform="matrix(1,0,0,0.64357776,0,21.530351)" />
    <inkscape:path-effect
       effect="skeletal"
       id="path-effect19-4"
       is_visible="true"
       lpeversion="1"
       pattern="#Small_tick"
       copytype="repeated"
       prop_scale="1"
       scale_y_rel="false"
       spacing="5.19"
       normal_offset="-2"
       tang_offset="-0.4"
       prop_units="false"
       vertical_pattern="true"
       hide_knot="false"
       fuse_tolerance="0" />
  </defs>
  <g
     inkscape:groupmode="layer"
     id="layer4"
     inkscape:label="Unused"
     style="display:inline">
    <rect
       style="display:inline;fill:#000000;fill-opacity:1;stroke:none;stroke-width:1.32292;stroke-dasharray:none;stroke-dashoffset:125.82;stroke-opacity:1"
       id="Backgorund"
       width="127"
       height="127"
       x="1.9984014e-15"
       y="3.5527137e-15"
       sodipodi:insensitive="true" />
    <circle
       style="display:none;fill:#ee8a00;fill-opacity:1;fill-rule:nonzero;stroke:none;stroke-width:13.4701;stroke-dashoffset:125.82"
       id="Orange_Gauge"
       cx="63.5"
       cy="63.5"
       r="60.721874"
       sodipodi:insensitive="true" />
    <path
       sodipodi:type="star"
       style="display:none;fill:#dfed00;fill-opacity:1;stroke:none;stroke-width:1.32286;stroke-dasharray:none;stroke-dashoffset:125.82;stroke-opacity:1"
       id="Center_Triangle"
       inkscape:flatsided="true"
       sodipodi:sides="3"
       sodipodi:cx="34.757896"
       sodipodi:cy="120.61286"
       sodipodi:r1="77.445305"
       sodipodi:r2="38.722652"
       sodipodi:arg1="-1.5707963"
       sodipodi:arg2="-0.52359878"
       inkscape:rounded="0"
       inkscape:randomized="0"
       d="m 34.757898,43.167557 67.069602,116.167963 -134.139206,-1e-5 z"
       inkscape:transform-center-y="-10.583332"
       transform="matrix(0.54662234,0,0,0.54662234,44.500559,39.903649)" />
  </g>
  <g
     inkscape:label="Background"
     inkscape:groupmode="layer"
     id="layer1"
     style="display:inline">
    <circle
       style="display:inline;fill:url(#radialGradient3);fill-opacity:1;fill-rule:nonzero;stroke:none;stroke-width:9.70136;stroke-dashoffset:125.82"
       id="Inner_radial_gradient"
       cx="63.5"
       cy="63.5"
       r="58.208332"
       sodipodi:insensitive="true" />
    <path
       id="Gauge_Side_Mask"
       style="display:none;stroke-width:1.32292;stroke-dashoffset:125.82"
       inkscape:transform-center-y="-10.583332"
       d="m 34.757898,43.167557 116.167952,10e-7 V 159.33552 H -32.311706 Z"
       sodipodi:nodetypes="ccccc"
       transform="matrix(0.54662233,0,0,0.54662233,44.500558,39.903649)" />
    <path
       d="M 32.230607,117.81739 C 12.882406,106.68031 0.9338662,86.078026 0.87561592,63.75351 0.87576041,29.197779 28.888679,1.1848614 63.444411,1.1847169 98.000139,1.1848591 126.01306,29.197778 126.0132,63.75351"
       style="display:inline;fill:none;fill-opacity:0.597015;stroke:#ffffff;stroke-width:0.800891;stroke-dasharray:none;stroke-opacity:1"
       id="White_Ring"
       sodipodi:nodetypes="cccc" />
  </g>
  <g
     inkscape:groupmode="layer"
     id="layer5"
     inkscape:label="Small Ticks">
    <path
       d="m 33.998961,115.47001 1.976339,-3.49588 c -0.191227,-0.10811 -0.381718,-0.21741 -0.571468,-0.3279 l -2.019906,3.46882 c 0.204194,0.11956 0.409208,0.23788 0.615035,0.35496 z m -5.283664,-3.40273 2.346638,-3.24617 c -0.177596,-0.12836 -0.354391,-0.25781 -0.530378,-0.38833 l -2.386035,3.21669 c 0.189041,0.14039 0.378968,0.27967 0.569775,0.41781 z m -4.868044,-3.93667 2.679922,-2.97498 c -0.162791,-0.1466 -0.324715,-0.29417 -0.485765,-0.44269 l -2.715149,2.94309 c 0.172713,0.1592 0.34638,0.3174 0.520992,0.47458 z m -4.421151,-4.41668 2.976193,-2.68234 c -0.146813,-0.1628 -0.292691,-0.32646 -0.43763,-0.49096 l -3.007249,2.64803 c 0.155212,0.17598 0.311443,0.35108 0.468686,0.52527 z m -3.942983,-4.842766 3.235448,-2.368221 c -0.129658,-0.176984 -0.258317,-0.35471 -0.385969,-0.533165 l -3.262336,2.331487 c 0.136537,0.190745 0.274158,0.380716 0.412857,0.569899 z m -3.433541,-5.214931 3.45769,-2.032637 c -0.11133,-0.189142 -0.221595,-0.378911 -0.330787,-0.569295 l -3.480407,1.993486 c 0.116686,0.20348 0.234523,0.406299 0.353504,0.608446 z m -2.8928249,-5.53317 3.6429179,-1.675587 c -0.09183,-0.199273 -0.182525,-0.39906 -0.272082,-0.599348 l -3.6614647,1.634016 c 0.095661,0.21419 0.1925401,0.427834 0.2906288,0.640919 z M 6.8359183,82.325578 10.627049,81.028509 c -0.07115,-0.20738 -0.141104,-0.415161 -0.209852,-0.623327 l -3.8055084,1.253081 c 0.073462,0.222875 0.1482079,0.445317 0.2242297,0.667315 z m -1.7175704,-6.007874 3.90233,-0.897085 c -0.0493,-0.213463 -0.097336,-0.427211 -0.1440999,-0.641231 l -3.9125375,0.850678 c 0.050089,0.229535 0.1015269,0.458752 0.1543074,0.687638 z M 4.0353161,70.153364 8.011831,69.67773 C 7.985557,69.460211 7.9606131,69.242519 7.9370068,69.02467 l -3.9825525,0.426808 c 0.025541,0.234171 0.052497,0.468137 0.080862,0.701886 z m -0.417219,-6.266881 4.0136855,-0.03272 c -0.00111,-0.11791 -0.00182,-0.235836 -0.00213,-0.353777 2e-7,-0.101669 2.912e-4,-0.203334 8.723e-4,-0.304993 l -4.0143279,-0.01775 c -7.389e-4,0.109311 -0.00117,0.218635 -0.00129,0.327972 6.384e-4,0.127116 0.0017,0.254204 0.00319,0.381263 z m 0.3007285,-6.270062 3.9905689,0.401797 c 0.02223,-0.21829 0.045768,-0.436442 0.07061,-0.654444 L 3.9946995,56.91415 c -0.026681,0.233909 -0.051974,0.468004 -0.075874,0.702271 z m 0.9617591,-6.188058 3.9261438,0.819008 C 8.8517423,52.032605 8.898014,51.818099 8.945538,51.603866 L 5.0291528,50.738892 c -0.050861,0.22952 -0.1003858,0.459348 -0.1485681,0.689471 z m 1.5963445,-6.048641 3.8218218,1.219693 c 0.06689,-0.20906 0.134994,-0.417736 0.204296,-0.626017 L 6.695479,44.7096 c -0.074137,0.222947 -0.1469894,0.446325 -0.2185498,0.670122 z m 2.2068536,-5.8511 3.6776022,1.603854 c 0.08787,-0.201171 0.176895,-0.401836 0.267071,-0.601981 L 8.9696021,38.884399 c -0.09651,0.214191 -0.1917847,0.428937 -0.2858193,0.644223 z m 2.7932872,-5.595433 3.493485,1.971487 c 0.107942,-0.191099 0.216988,-0.381569 0.327134,-0.571397 l -3.470243,-2.011868 c -0.117978,0.203253 -0.234772,0.407184 -0.350376,0.611778 z m 3.355644,-5.281642 3.269472,2.322595 c 0.127108,-0.178845 0.255272,-0.356938 0.384483,-0.534266 l -3.241734,-2.361113 c -0.138542,0.190132 -0.275951,0.381065 -0.412221,0.572784 z m 3.893925,-4.909727 3.005561,2.657176 c 0.145372,-0.164408 0.291748,-0.327941 0.439121,-0.490585 l -2.973329,-2.693833 c -0.158202,0.174828 -0.315321,0.35058 -0.471353,0.527242 z m 4.408386,-4.471984 2.699662,2.968412 c 0.162375,-0.147675 0.325641,-0.294353 0.489784,-0.440029 l -2.663115,-3.00072 c -0.17636,0.156361 -0.351808,0.313809 -0.526331,0.472337 z m 4.856538,-3.961973 2.367921,3.237497 c 0.177095,-0.129529 0.354959,-0.25801 0.533576,-0.385437 l -2.329512,-3.265312 c -0.191455,0.136615 -0.382121,0.274367 -0.571985,0.413252 z m 5.235992,-3.426816 2.019653,3.466687 c 0.189633,-0.110479 0.379911,-0.219858 0.57082,-0.328134 l -1.979382,-3.490005 c -0.204368,0.115964 -0.408069,0.233117 -0.611091,0.351452 z m 5.557321,-2.8675803 1.65486,3.6559783 c 0.199988,-0.09052 0.400497,-0.179898 0.601515,-0.268118 L 39.428524,8.7265248 c -0.215097,0.09441 -0.429651,0.1900588 -0.643648,0.2869419 z m 5.820526,-2.28427 1.27354,3.8053723 c 0.20816,-0.06966 0.416719,-0.13813 0.625662,-0.205388 L 45.275059,6.509478 c -0.223644,0.071951 -0.446867,0.1451924 -0.669657,0.2197187 z m 6.025606,-1.6768833 0.875695,3.9148704 c 0.214149,-0.047903 0.428574,-0.094554 0.643261,-0.1399479 L 51.320125,4.9025303 c -0.230007,0.048588 -0.459717,0.098518 -0.689117,0.1497831 z m 6.172562,-1.0454205 0.461323,3.9844709 c 0.217956,-0.025236 0.436065,-0.049169 0.654312,-0.071795 L 57.5056,3.9297577 c -0.234189,0.024321 -0.468203,0.050035 -0.70203,0.077135 z m 6.261393,-0.3898818 0.03043,4.0141744 c 0.13486,-0.00102 0.269732,-0.00153 0.404611,-0.00153 0.08473,2e-7 0.16946,2.023e-4 0.254185,6.06e-4 l 0.01912,-4.014412 C 63.682214,3.6153144 63.591111,3.6149984 63.5,3.6148969 c -0.145035,1.616e-4 -0.290048,8.668e-4 -0.435037,0.00211 z m 6.268981,0.2963031 -0.40268,3.9909599 c 0.218311,0.022028 0.436485,0.045365 0.65451,0.070005 l 0.450445,-3.985735 c -0.233911,-0.026467 -0.468008,-0.051545 -0.702275,-0.07523 z m 6.188319,0.9561404 -0.819338,3.9268804 c 0.214807,0.04482 0.429354,0.090898 0.643628,0.1382286 L 76.211795,5.0174027 C 75.982254,4.9667477 75.752406,4.9174298 75.522263,4.8694546 Z m 6.049408,1.5909349 -1.21947,3.8229035 c 0.209118,0.06671 0.417855,0.134623 0.626197,0.20374 L 82.24191,6.678343 C 82.018923,6.6044038 81.795505,6.5317507 81.571671,6.4603895 Z m 5.85237,2.2016533 -1.603076,3.6790302 c 0.201248,0.08769 0.401992,0.176539 0.602218,0.266538 L 88.06844,8.9472894 C 87.854189,8.8509701 87.639385,8.755886 87.424041,8.6620428 Z m 5.597209,2.7882962 -1.970156,3.495259 c 0.191196,0.107771 0.381764,0.216647 0.571691,0.326624 L 93.63326,11.800166 C 93.429929,11.682371 93.225921,11.56576 93.02125,11.450339 Z m 5.283924,3.350862 -2.320711,3.271591 c 0.178961,0.126947 0.357171,0.254948 0.534616,0.383997 l 2.359168,-3.243893 c -0.190229,-0.138367 -0.381258,-0.275601 -0.573073,-0.411695 z m 4.912516,3.889352 -2.65474,3.008027 c 0.16454,0.145217 0.32821,0.291439 0.49099,0.438658 l 2.69134,-2.975834 c -0.17495,-0.158034 -0.35082,-0.314987 -0.52759,-0.470851 z m 4.47578,4.404105 -2.9659,2.702472 c 0.14783,0.162238 0.29466,0.325368 0.44049,0.489375 l 2.99824,-2.665941 c -0.15652,-0.17622 -0.31414,-0.351526 -0.47283,-0.525906 z m 3.96651,4.852985 -3.23533,2.370876 c 0.12969,0.176977 0.25834,0.354723 0.38593,0.533224 l 3.26318,-2.332484 c -0.13679,-0.191333 -0.27472,-0.381876 -0.41378,-0.571616 z m 3.43157,5.232944 -3.46486,2.022753 c 0.11064,0.189534 0.22019,0.379713 0.32864,0.570524 l 3.48822,-1.982498 c -0.11614,-0.204265 -0.23348,-0.407862 -0.352,-0.610779 z m 2.87255,5.554778 -3.65451,1.658105 c 0.0907,0.199907 0.18025,0.400337 0.26865,0.601276 l 3.67337,-1.615988 c -0.0946,-0.215013 -0.19044,-0.429482 -0.28751,-0.643393 z m 2.28944,5.818488 -3.80425,1.27693 c 0.0698,0.208098 0.1385,0.416596 0.20595,0.62548 l 3.81861,-1.232951 c -0.0721,-0.223579 -0.14559,-0.446736 -0.22031,-0.669459 z m 1.68226,6.024073 -3.91409,0.879229 c 0.0481,0.214107 0.0949,0.42849 0.14053,0.643137 l 3.92397,-0.833389 c -0.0488,-0.229962 -0.0989,-0.459625 -0.15041,-0.688977 z m 1.05102,6.171534 -3.98404,0.465003 c 0.0254,0.217932 0.0496,0.436018 0.0724,0.654244 l 3.98941,-0.417301 c -0.0245,-0.234161 -0.0505,-0.468148 -0.0778,-0.701946 z m 0.39568,6.260871 -4.01409,0.03425 c 0.001,0.151794 0.002,0.303602 0.002,0.45542 v 0.203407 l 4.01476,-8e-6 0,-0.203407 c -1.8e-4,-0.163249 -0.001,-0.326471 -0.003,-0.489661 z"
       style="display:inline;fill:#ffffff;fill-opacity:0.597015;stroke:none;stroke-width:1.00013;stroke-dasharray:none"
       id="Radial_Pattern"
       sodipodi:nodetypes="ccccc"
       transform="translate(6.4618686e-5,1.1750885e-4)"
       inkscape:path-effect="#path-effect19"
       inkscape:original-d="M 35.624182,111.78232 C 18.345065,101.83623 7.6742949,83.437146 7.6222738,63.5 7.6224029,32.639637 32.639637,7.6224029 63.5,7.6222738 94.360364,7.6224008 119.3776,32.639636 119.37773,63.5 v 3.369059" />
    <path
       id="Small_tick"
       style="display:none;fill:url(#linearGradient17);stroke-width:0.556964;stroke-linejoin:round;stroke-dashoffset:125.82"
       d="M 8.3614025,59.747943 H 15.8696 v 0.658925 H 8.3614025 Z"
       transform="matrix(0.53471606,0,0,1,3.8904263,0)" />
  </g>
  <g
     inkscape:groupmode="layer"
     id="layer6"
     inkscape:label="Color Ring">
    <path
       d="M 33.466447,115.52717 C 14.851425,104.81212 3.3556616,84.990541 3.2996187,63.511988 3.2997577,30.265709 30.251158,3.3143099 63.497438,3.3141708 96.743714,3.3143076 123.69512,30.265708 123.69525,63.511988"
       style="display:inline;fill:none;fill-opacity:0.597015;stroke:#faa800;stroke-width:0.79375;stroke-dasharray:none;stroke-opacity:1"
       id="Orange_Ring"
       sodipodi:nodetypes="cccc" />
    <path
       d="m 24.713924,106.63355 c -0.775015,0.0929 -1.557065,0.17035 -2.345549,0.23218 0.757852,0.72805 1.535028,1.4365 2.330862,2.12422 -0.01158,-0.79075 -0.0065,-1.57636 0.01469,-2.3564 z m -8.073052,-9.049591 c -0.7784,-0.06641 -1.560427,-0.148726 -2.345478,-0.247118 0.593883,0.865561 1.209731,1.716086 1.84688,2.550428 0.151812,-0.775784 0.318156,-1.543702 0.498598,-2.30331 z M 10.549345,87.095319 C 9.7998839,86.875031 9.050206,86.638374 8.3009133,86.38519 8.7098424,87.352081 9.1433789,88.308492 9.6008577,89.253276 9.9047209,88.52321 10.221029,87.803743 10.549345,87.095319 Z M 6.6893441,75.598694 C 6.001148,75.229953 5.3161443,74.844388 4.6349351,74.44184 c 0.202991,1.032039 0.4332315,2.058154 0.6900562,3.077198 0.4445735,-0.653595 0.8995031,-1.293858 1.3643528,-1.920344 z M 5.3108728,63.525151 c -0.00856,-0.0074 -0.017114,-0.01473 -0.025669,-0.02211 -0.5834693,-0.50422 -1.1598661,-1.024148 -1.7287161,-1.559415 -0.014527,0.520189 -0.022117,1.040804 -0.022708,1.561696 0.00272,0.537313 0.013051,1.074128 0.030897,1.610296 0.5739428,-0.54637 1.1561534,-1.076675 1.7461957,-1.59047 z M 6.6103313,51.438831 C 6.1393782,50.815494 5.6781529,50.178436 5.2271511,49.528043 4.9788635,50.550208 4.7571079,51.579035 4.5623966,52.613286 5.2413326,52.205161 5.9241854,51.813702 6.6103313,51.438831 Z M 10.37414,39.895116 C 10.039889,39.188808 9.7178203,38.471233 9.4084295,37.742779 8.9574873,38.692537 8.5310433,39.653866 8.1296096,40.625531 8.8775491,40.36542 9.6259337,40.121974 10.37414,39.895116 Z m 6.035594,-10.536498 c -0.182093,-0.760031 -0.349549,-1.528875 -0.501873,-2.306143 -0.637442,0.838351 -1.25242,1.693184 -1.844421,2.563262 0.785332,-0.102346 1.567638,-0.188027 2.346294,-0.257119 z m 8.113694,-9.058976 c -0.01519,-0.782013 -0.01381,-1.569446 0.0042,-2.361676 -0.80315,0.68295 -1.588551,1.387839 -2.354967,2.114155 0.790865,0.06629 1.574581,0.148961 2.350764,0.247521 z m 9.843285,-7.119844 c 0.147345,-0.767682 0.311252,-1.537312 0.491799,-2.308267 -0.924622,0.500618 -1.836405,1.02521 -2.734113,1.573264 0.757169,0.231236 1.504736,0.476403 2.242314,0.735003 z M 45.454125,8.2336062 c 0.300125,-0.7217395 0.616812,-1.4419559 0.950139,-2.1600257 -1.007093,0.3021333 -2.006259,0.6302737 -2.996259,0.9839092 0.694226,0.380729 1.376395,0.772933 2.04612,1.1761165 z M 57.321023,5.6535284 c 0.443154,-0.6441862 0.902869,-1.2833779 1.379223,-1.9169514 -1.050565,0.087493 -2.098112,0.2030275 -3.141404,0.3460908 0.602035,0.5147649 1.189557,1.0385503 1.762181,1.5708606 z m 12.162681,-0.02117 c 0.570818,-0.5342669 1.156573,-1.0600484 1.75688,-1.5768491 -1.043832,-0.1395337 -2.09184,-0.2515057 -3.142787,-0.3354038 0.478583,0.6319513 0.940526,1.2695768 1.385907,1.9122529 z M 81.35937,8.1726869 c 0.66839,-0.4053894 1.349263,-0.799839 2.042234,-1.1828533 -0.99117,-0.3503665 -1.991425,-0.6752052 -2.99953,-0.9740039 0.335713,0.7169575 0.654785,1.4361178 0.957296,2.1568572 z m 11.103674,4.9095471 c 0.736715,-0.261055 1.483459,-0.508717 2.239844,-0.742488 -0.899506,-0.545045 -1.813009,-1.066596 -2.739271,-1.564141 0.18309,0.770353 0.34954,1.539437 0.499427,2.306629 z m 9.867046,7.086305 c 0.77579,-0.101265 1.55915,-0.186682 2.34971,-0.255755 -0.76885,-0.723568 -1.5566,-1.425677 -2.36202,-2.105813 0.0207,0.792137 0.0248,1.579535 0.0123,2.361568 z m 8.14525,9.030318 c 0.77889,0.06628 1.56148,0.149124 2.34716,0.248607 -0.59495,-0.868 -1.21283,-1.720676 -1.85315,-2.556791 -0.14967,0.777883 -0.3145,1.547406 -0.49401,2.308184 z m 6.07067,10.515636 c 0.74895,0.223998 1.49813,0.464558 2.24692,0.721758 -0.40463,-0.970216 -0.83425,-1.930018 -1.28833,-2.878169 -0.30698,0.729747 -0.62667,1.44868 -0.95859,2.156411 z m 3.80198,11.53035 c 0.6874,0.371962 1.37156,0.760487 2.05187,1.165651 -0.19818,-1.033432 -0.42337,-2.061359 -0.67505,-3.082546 -0.44884,0.652363 -0.90795,1.291457 -1.37682,1.916895 z m 1.34085,12.080422 c 0.0676,0.05803 0.13509,0.116272 0.20251,0.17473 0.52496,0.434985 1.04992,0.869971 1.57488,1.304957 l 0,-1.304961 c -6.7e-4,-0.588545 -0.0103,-1.176736 -0.0287,-1.76436 -0.57525,0.545731 -1.1583,1.075738 -1.74867,1.589634 z"
       style="display:inline;fill:#ff6600;fill-opacity:1;stroke:#ff9602;stroke-width:1.00013;stroke-dasharray:none;stroke-opacity:1"
       id="Orange_Ticks"
       sodipodi:nodetypes="ccccc"
       transform="translate(6.4618685e-5,1.1750885e-4)"
       inkscape:path-effect="#path-effect21"
       inkscape:original-d="M 35.624182,111.78232 C 18.345065,101.83623 7.6742949,83.437146 7.6222738,63.5 7.6224029,32.639637 32.639637,7.6224029 63.5,7.6222738 94.360364,7.6224008 119.3776,32.639636 119.37773,63.5 v 3.369059"
       inkscape:export-filename="Orange_Ticks.svg"
       inkscape:export-xdpi="107.9379"
       inkscape:export-ydpi="107.9379" />
    <path
       id="Orange_Triangle"
       style="display:none;fill:#fd8000;stroke-width:0.79375"
       inkscape:transform-center-x="-0.29616663"
       transform="matrix(1,0,0,1.4351901,19.623704,-15.169341)"
       d="m 29.966101,47.35854 -1.777002,1.025952 v -2.051905 z" />
  </g>
  <g
     inkscape:groupmode="layer"
     id="Big_Ticks"
     inkscape:label="Big Ticks"
     style="display:inline">
    <path
       id="Tick"
       style="display:none;stroke:#ffffff;stroke-width:0.490473;stroke-linecap:butt;stroke-linejoin:round;stroke-dasharray:none;stroke-dashoffset:125.82;stroke-opacity:1"
       d="M 2.8910695,66.165181 V 60.83482 l 15.3845275,1.066072 v 3.198216 z"
       sodipodi:nodetypes="ccccc"
       inkscape:export-filename="Tick.svg"
       inkscape:export-xdpi="96"
       inkscape:export-ydpi="96"
       transform="matrix(0.6943174,0,0,0.65002769,0.80298815,22.223239)" />
    <path
       d="m 33.626287,113.43842 c 1.03642,0.62174 2.094872,1.21027 3.17427,1.76372 1.404862,-3.28948 2.852879,-6.5561 4.343369,-9.79944 -0.517017,-0.26685 -1.028488,-0.54499 -1.53418,-0.83403 -1.954888,2.98326 -3.949607,5.93997 -5.983459,8.86975 z M 17.127346,98.462262 c 0.721043,0.962146 1.470846,1.902678 2.248324,2.819738 2.556981,-2.480099 5.143079,-4.928579 7.757612,-7.345022 -0.377169,-0.457342 -0.746371,-0.921799 -1.107371,-1.392968 -2.941166,2.007254 -5.907588,3.980133 -8.898565,5.918252 z M 7.281616,78.486909 c 0.3221056,1.158472 0.6796992,2.306937 1.071697,3.443525 3.281634,-1.384304 6.578348,-2.728225 9.88946,-4.031348 -0.187186,-0.561384 -0.363983,-1.125706 -0.530155,-1.692563 -3.466553,0.802465 -6.943787,1.562722 -10.431002,2.280386 z M 5.651915,56.248154 c -0.1540432,1.195004 -0.2708267,2.39524 -0.3495164,3.598696 3.5662599,-0.01381 7.1307984,0.0178 10.6928654,0.09456 0.04511,-0.585972 0.101644,-1.171566 0.169413,-1.756348 -3.51098,-0.601357 -7.0154803,-1.2471 -10.512762,-1.936904 z m 6.979668,-21.173371 c -0.584599,1.052368 -1.13712,2.122474 -1.656726,3.208304 3.314323,1.316961 6.611296,2.673462 9.890169,4.069211 0.262157,-0.531558 0.533867,-1.058237 0.814951,-1.5796 -3.038071,-1.861915 -6.054448,-3.761328 -9.048394,-5.697915 z M 27.016846,18.020817 c -0.942458,0.750923 -1.861768,1.531686 -2.755916,2.341453 2.56849,2.474759 5.103967,4.980981 7.606109,7.517929 0.439809,-0.389459 0.887606,-0.770651 1.342954,-1.143396 -2.100159,-2.878201 -4.164639,-5.783781 -6.193147,-8.715986 z M 46.768532,7.6836366 c -1.152277,0.348195 -2.293911,0.7314088 -3.422888,1.1488073 1.460147,3.2546791 2.880395,6.5256091 4.260419,9.8120501 0.558543,-0.199057 1.120571,-0.387983 1.685649,-0.566597 C 48.408988,14.624643 47.56783,11.159639 46.768532,7.6836366 Z M 68.966024,5.44963 C 67.766392,5.3328968 66.56253,5.2538386 65.356452,5.2132895 c 0.123296,3.5651758 0.200765,7.1298835 0.2327,10.6933725 0.58647,0.02604 1.172922,0.06364 1.758923,0.112635 0.494559,-3.528729 1.033984,-7.0521971 1.617949,-10.569667 z m 21.375568,6.332694 c -1.069449,-0.552448 -2.155633,-1.072401 -3.256539,-1.559025 -1.218614,3.352658 -2.477167,6.689219 -3.775368,10.008933 0.539527,0.246176 1.074536,0.502056 1.60459,0.767458 1.771237,-3.093175 3.580451,-6.165877 5.427317,-9.217366 z m 17.493848,13.844233 c -0.78043,-0.918908 -1.59028,-1.813665 -2.42873,-2.682257 -2.39204,2.647428 -4.81677,5.262397 -7.273441,7.844582 0.403054,0.426254 0.797992,0.860855 1.184632,1.30337 2.810799,-2.190537 5.650229,-4.345866 8.517539,-6.465695 z m 10.93489,19.428975 c -0.38286,-1.141179 -0.80033,-2.270713 -1.25156,-3.386587 -3.20932,1.557482 -6.43612,3.075617 -9.67964,4.554081 0.21575,0.552459 0.42151,1.108763 0.61712,1.66848 3.42527,-0.986517 6.86355,-1.931939 10.31408,-2.835974 z m 3.04827,21.960533 0,-3.464883 c -3.56058,0.230999 -7.12116,0.461999 -10.68174,0.692998 l 0,2.078926 c 3.56058,0.230986 7.12116,0.461972 10.68174,0.692959 z"
       style="display:none;stroke:#ed0000;stroke-width:0.694267;stroke-linejoin:round;stroke-dasharray:none;stroke-dashoffset:125.82;stroke-opacity:1"
       id="Multi_ticks"
       sodipodi:nodetypes="cccc"
       inkscape:path-effect="#path-effect12"
       inkscape:original-d="M 35.624182,111.78232 C 18.345065,101.83623 7.6742949,83.437146 7.6222738,63.5 7.6224029,32.639637 32.639637,7.6224029 63.5,7.6222738 94.360364,7.6224008 119.3776,32.639636 119.37773,63.5 v 14.166976" />
    <path
       d="m 13.345189,97.809672 c 0.708201,1.037208 1.447419,2.053345 2.216571,3.046538 2.659173,-2.372969 5.345848,-4.71331 8.059342,-7.020604 -0.376749,-0.499928 -0.744717,-1.006778 -1.10367,-1.520146 -3.034188,1.866876 -6.091835,3.698408 -9.172243,5.494212 z M 3.5715053,74.471886 c 0.2394963,1.236666 0.5173329,2.464887 0.8324262,3.682796 3.3757493,-1.131759 6.7637235,-2.221351 10.1632405,-3.26836 -0.149266,-0.604635 -0.287115,-1.211645 -0.413314,-1.820628 -3.520087,0.512727 -7.0477712,0.981586 -10.5823527,1.406192 z M 4.2533366,49.084201 C 3.9522087,50.306745 3.6883774,51.538872 3.4626768,52.778567 7.0075844,53.16491 10.54621,53.594965 14.077803,54.068439 14.197444,53.456097 14.328518,52.8457 14.470842,52.237681 11.053717,51.228735 7.6476358,50.177467 4.2533366,49.084201 Z M 15.210467,26.233528 c -0.767115,1.00106 -1.502571,2.025312 -2.205533,3.070743 3.093044,1.774504 6.162797,3.586314 9.208509,5.435135 0.354297,-0.513371 0.717997,-1.019898 1.090919,-1.519148 -2.725813,-2.294192 -5.424024,-4.62321 -8.093895,-6.98673 z M 34.583974,9.8247211 c -1.109052,0.5946149 -2.200214,1.2230859 -3.271473,1.8845779 2.082778,2.895491 4.129317,5.815321 6.139291,8.75875 0.53576,-0.321387 1.077614,-0.633062 1.625127,-0.934844 -1.536233,-3.21648 -3.033979,-6.452892 -4.492945,-9.7084839 z M 58.897518,2.6656459 c -1.258868,0.098942 -2.513455,0.2373774 -3.761749,0.4144713 0.749348,3.4865741 1.454962,6.9809298 2.116514,10.4823278 0.617859,-0.07974 1.236914,-0.147745 1.856728,-0.203825 C 58.993521,9.7969684 58.922926,6.232393 58.897518,2.6656459 Z m 25.14819,3.4370029 C 82.861624,5.6774438 81.664544,5.2881209 80.45648,4.9355142 79.700219,8.4217746 78.901927,11.897486 78.061896,15.361896 c 0.597995,0.182813 1.192817,0.376548 1.784031,0.581026 1.359667,-3.295535 2.759702,-6.5758724 4.199781,-9.8402732 z M 105.64883,19.381456 c -0.91645,-0.872076 -1.8595,-1.713906 -2.82715,-2.524658 -2.09225,2.888292 -4.220115,5.749026 -6.383316,8.581451 0.471334,0.405998 0.934596,0.82089 1.38935,1.244495 2.574276,-2.465764 5.181426,-4.899773 7.821116,-7.301288 z m 14.25497,20.988293 c -0.47741,-1.163926 -0.99009,-2.313378 -1.53721,-3.44634 -3.09565,1.773752 -6.21149,3.509385 -9.34677,5.206572 0.26506,0.56673 0.51989,1.138326 0.76432,1.714351 3.35781,-1.198387 6.73128,-2.356678 10.11966,-3.474583 z m 4.6148,24.796546 0,-1.666306 c -9.2e-4,-0.657317 -0.0128,-1.31414 -0.0354,-1.970187 -3.54828,0.372163 -7.10018,0.698709 -10.65498,0.979315 0.006,0.33033 0.009,0.66065 0.009,0.990895 l 0,0.973326 c 3.56058,0.230986 7.12116,0.461971 10.68174,0.692957 z"
       style="display:inline;stroke:#ffffff;stroke-width:0.52916667;stroke-linejoin:round;stroke-dashoffset:125.82;stroke-dasharray:none;fill:#000000;fill-opacity:1"
       id="Multi_ticks_missing_first"
       sodipodi:nodetypes="cccc"
       inkscape:path-effect="#path-effect16"
       inkscape:original-d="M 35.624182,111.78232 C 18.345065,101.83623 7.6742949,83.437146 7.6222738,63.5 7.6224029,32.639637 32.639637,7.6224029 63.5,7.6222738 94.360364,7.6224008 119.3776,32.639636 119.37773,63.5 v 14.166976" />
  </g>
  <g
     inkscape:groupmode="layer"
     id="layer3"
     inkscape:label="Bottom Panel"
     style="display:inline">
    <path
       id="Bottom_panel"
       style="display:inline;fill:#000000;fill-opacity:1;stroke:#ffffff;stroke-width:0.968066;stroke-linejoin:round;stroke-dasharray:none;stroke-dashoffset:125.82;stroke-opacity:1"
       inkscape:transform-center-y="-10.583332"
       transform="matrix(0.54662234,0,0,0.54662234,44.500559,37.522401)"
       d="m 72.805357,109.06769 19.057735,33.00897 a 11.505906,11.505906 120 0 1 -9.964408,17.25886 l -94.281574,-1e-5 a 11.505908,11.505908 60.000002 0 1 -9.964408,-17.25886 l 19.0577357,-33.00897 a 15.632304,15.632304 150 0 1 13.5379743,-7.81615 l 49.018971,1e-5 a 15.632309,15.632309 30.000004 0 1 13.537974,7.81615 z"
       sodipodi:nodetypes="ccccc"
       inkscape:path-effect="#path-effect6"
       inkscape:original-d="m 68.292699,101.25154 33.534801,58.08398 -134.139206,-1e-5 33.534802,-58.08398 z"
       inkscape:export-filename="Bottom_panel.svg"
       inkscape:export-xdpi="107.9379"
       inkscape:export-ydpi="107.9379" />
  </g>
</svg>
